solid cube
facet normal -0.6324555320336759 -0.6324555320336759 -0.447213595499958 
outer loop
vertex -0.2357022603955159 -0.2357022603955158 -0.8333333333333334 
vertex 0.0 2.0816681711721685e-17 -1.5 
vertex -9.977894457309405e-17 -0.7071067811865476 -0.5 
endloop
endfacet
facet normal -0.632455532033676 -0.6324555320336758 -0.447213595499958 
outer loop
vertex -0.2357022603955159 -0.2357022603955158 -0.8333333333333334 
vertex -9.977894457309405e-17 -0.7071067811865476 -0.5 
vertex -0.7071067811865476 5.884003000792043e-17 -0.5 
endloop
endfacet
facet normal -0.632455532033676 -0.6324555320336758 -0.447213595499958 
outer loop
vertex -0.2357022603955159 -0.2357022603955158 -0.8333333333333334 
vertex -0.7071067811865476 5.884003000792043e-17 -0.5 
vertex 0.0 2.0816681711721685e-17 -1.5 
endloop
endfacet
facet normal -0.6324555320336759 0.6324555320336759 -0.447213595499958 
outer loop
vertex -0.2357022603955158 0.2357022603955159 -0.8333333333333334 
vertex 0.0 2.0816681711721685e-17 -1.5 
vertex -0.7071067811865476 5.884003000792043e-17 -0.5 
endloop
endfacet
facet normal -0.6324555320336758 0.632455532033676 -0.44721359549995787 
outer loop
vertex -0.2357022603955158 0.2357022603955159 -0.8333333333333334 
vertex -0.7071067811865476 5.884003000792043e-17 -0.5 
vertex 7.341226667400463e-17 0.7071067811865476 -0.5 
endloop
endfacet
facet normal -0.6324555320336757 0.6324555320336759 -0.447213595499958 
outer loop
vertex -0.2357022603955158 0.2357022603955159 -0.8333333333333334 
vertex 7.341226667400463e-17 0.7071067811865476 -0.5 
vertex 0.0 2.0816681711721685e-17 -1.5 
endloop
endfacet
facet normal 0.6324555320336759 0.6324555320336759 -0.447213595499958 
outer loop
vertex 0.2357022603955159 0.23570226039551587 -0.8333333333333334 
vertex 0.0 2.0816681711721685e-17 -1.5 
vertex 7.341226667400463e-17 0.7071067811865476 -0.5 
endloop
endfacet
facet normal 0.632455532033676 0.6324555320336759 -0.4472135954999579 
outer loop
vertex 0.2357022603955159 0.23570226039551587 -0.8333333333333334 
vertex 7.341226667400463e-17 0.7071067811865476 -0.5 
vertex 0.7071067811865476 -2.7755575615628914e-17 -0.5 
endloop
endfacet
facet normal 0.632455532033676 0.6324555320336758 -0.44721359549995804 
outer loop
vertex 0.2357022603955159 0.23570226039551587 -0.8333333333333334 
vertex 0.7071067811865476 -2.7755575615628914e-17 -0.5 
vertex 0.0 2.0816681711721685e-17 -1.5 
endloop
endfacet
facet normal 0.6324555320336759 -0.6324555320336759 -0.447213595499958 
outer loop
vertex 0.2357022603955158 -0.23570226039551587 -0.8333333333333334 
vertex 0.0 2.0816681711721685e-17 -1.5 
vertex 0.7071067811865476 -2.7755575615628914e-17 -0.5 
endloop
endfacet
facet normal 0.6324555320336758 -0.6324555320336759 -0.4472135954999579 
outer loop
vertex 0.2357022603955158 -0.23570226039551587 -0.8333333333333334 
vertex 0.7071067811865476 -2.7755575615628914e-17 -0.5 
vertex -9.977894457309405e-17 -0.7071067811865476 -0.5 
endloop
endfacet
facet normal 0.6324555320336757 -0.632455532033676 -0.447213595499958 
outer loop
vertex 0.2357022603955158 -0.23570226039551587 -0.8333333333333334 
vertex -9.977894457309405e-17 -0.7071067811865476 -0.5 
vertex 0.0 2.0816681711721685e-17 -1.5 
endloop
endfacet
facet normal 0.632455532033676 0.6324555320336758 0.44721359549995804 
outer loop
vertex 0.2357022603955159 0.23570226039551587 0.8333333333333334 
vertex 2.8108394723554008e-18 2.7755575615628914e-17 1.5 
vertex 0.7071067811865476 -2.7755575615628914e-17 0.5 
endloop
endfacet
facet normal 0.6324555320336759 0.6324555320336758 0.4472135954999579 
outer loop
vertex 0.2357022603955159 0.23570226039551587 0.8333333333333334 
vertex 0.7071067811865476 -2.7755575615628914e-17 0.5 
vertex 7.341226667400463e-17 0.7071067811865476 0.5 
endloop
endfacet
facet normal 0.6324555320336758 0.632455532033676 0.44721359549995804 
outer loop
vertex 0.2357022603955159 0.23570226039551587 0.8333333333333334 
vertex 7.341226667400463e-17 0.7071067811865476 0.5 
vertex 2.8108394723554008e-18 2.7755575615628914e-17 1.5 
endloop
endfacet
facet normal -0.6324555320336758 0.6324555320336759 0.447213595499958 
outer loop
vertex -0.2357022603955158 0.2357022603955159 0.8333333333333334 
vertex 2.8108394723554008e-18 2.7755575615628914e-17 1.5 
vertex 7.341226667400463e-17 0.7071067811865476 0.5 
endloop
endfacet
facet normal -0.6324555320336758 0.632455532033676 0.4472135954999581 
outer loop
vertex -0.2357022603955158 0.2357022603955159 0.8333333333333334 
vertex 7.341226667400463e-17 0.7071067811865476 0.5 
vertex -0.7071067811865476 5.884003000792043e-17 0.5 
endloop
endfacet
facet normal -0.6324555320336758 0.6324555320336759 0.447213595499958 
outer loop
vertex -0.2357022603955158 0.2357022603955159 0.8333333333333334 
vertex -0.7071067811865476 5.884003000792043e-17 0.5 
vertex 2.8108394723554008e-18 2.7755575615628914e-17 1.5 
endloop
endfacet
facet normal -0.632455532033676 -0.6324555320336758 0.44721359549995804 
outer loop
vertex -0.2357022603955159 -0.2357022603955158 0.8333333333333334 
vertex 2.8108394723554008e-18 2.7755575615628914e-17 1.5 
vertex -0.7071067811865476 5.884003000792043e-17 0.5 
endloop
endfacet
facet normal -0.632455532033676 -0.6324555320336758 0.44721359549995815 
outer loop
vertex -0.2357022603955159 -0.2357022603955158 0.8333333333333334 
vertex -0.7071067811865476 5.884003000792043e-17 0.5 
vertex -9.977894457309405e-17 -0.7071067811865476 0.5 
endloop
endfacet
facet normal -0.632455532033676 -0.6324555320336758 0.447213595499958 
outer loop
vertex -0.2357022603955159 -0.2357022603955158 0.8333333333333334 
vertex -9.977894457309405e-17 -0.7071067811865476 0.5 
vertex 2.8108394723554008e-18 2.7755575615628914e-17 1.5 
endloop
endfacet
facet normal 0.6324555320336757 -0.6324555320336759 0.447213595499958 
outer loop
vertex 0.2357022603955158 -0.23570226039551587 0.8333333333333334 
vertex 2.8108394723554008e-18 2.7755575615628914e-17 1.5 
vertex -9.977894457309405e-17 -0.7071067811865476 0.5 
endloop
endfacet
facet normal 0.6324555320336759 -0.632455532033676 0.4472135954999579 
outer loop
vertex 0.2357022603955158 -0.23570226039551587 0.8333333333333334 
vertex -9.977894457309405e-17 -0.7071067811865476 0.5 
vertex 0.7071067811865476 -2.7755575615628914e-17 0.5 
endloop
endfacet
facet normal 0.6324555320336759 -0.6324555320336759 0.447213595499958 
outer loop
vertex 0.2357022603955158 -0.23570226039551587 0.8333333333333334 
vertex 0.7071067811865476 -2.7755575615628914e-17 0.5 
vertex 2.8108394723554008e-18 2.7755575615628914e-17 1.5 
endloop
endfacet
facet normal -0.3162277660168379 -0.3162277660168379 -0.8944271909999159 
outer loop
vertex -0.5892556509887896 -0.5892556509887896 -0.3333333333333333 
vertex -1.0606601717798214 -1.0606601717798212 0.0 
vertex -0.7071067811865476 5.884003000792043e-17 -0.5 
endloop
endfacet
facet normal -0.316227766016838 -0.3162277660168379 -0.8944271909999159 
outer loop
vertex -0.5892556509887896 -0.5892556509887896 -0.3333333333333333 
vertex -0.7071067811865476 5.884003000792043e-17 -0.5 
vertex -9.977894457309405e-17 -0.7071067811865476 -0.5 
endloop
endfacet
facet normal -0.31622776601683805 -0.3162277660168378 -0.894427190999916 
outer loop
vertex -0.5892556509887896 -0.5892556509887896 -0.3333333333333333 
vertex -9.977894457309405e-17 -0.7071067811865476 -0.5 
vertex -1.0606601717798214 -1.0606601717798212 0.0 
endloop
endfacet
facet normal 0.31622776601683783 -0.9486832980505139 7.447602459741818e-17 
outer loop
vertex -0.3535533905932738 -0.8249579113843054 0.0 
vertex -1.0606601717798214 -1.0606601717798212 0.0 
vertex -9.977894457309405e-17 -0.7071067811865476 -0.5 
endloop
endfacet
facet normal 0.3162277660168378 -0.9486832980505139 0.0 
outer loop
vertex -0.3535533905932738 -0.8249579113843054 0.0 
vertex -9.977894457309405e-17 -0.7071067811865476 -0.5 
vertex -9.977894457309405e-17 -0.7071067811865476 0.5 
endloop
endfacet
facet normal 0.31622776601683783 -0.9486832980505139 3.723801229870909e-17 
outer loop
vertex -0.3535533905932738 -0.8249579113843054 0.0 
vertex -9.977894457309405e-17 -0.7071067811865476 0.5 
vertex -1.0606601717798214 -1.0606601717798212 0.0 
endloop
endfacet
facet normal -0.316227766016838 -0.3162277660168379 0.894427190999916 
outer loop
vertex -0.5892556509887896 -0.5892556509887896 0.3333333333333333 
vertex -1.0606601717798214 -1.0606601717798212 0.0 
vertex -9.977894457309405e-17 -0.7071067811865476 0.5 
endloop
endfacet
facet normal -0.316227766016838 -0.3162277660168379 0.8944271909999159 
outer loop
vertex -0.5892556509887896 -0.5892556509887896 0.3333333333333333 
vertex -9.977894457309405e-17 -0.7071067811865476 0.5 
vertex -0.7071067811865476 5.884003000792043e-17 0.5 
endloop
endfacet
facet normal -0.31622776601683794 -0.3162277660168379 0.8944271909999159 
outer loop
vertex -0.5892556509887896 -0.5892556509887896 0.3333333333333333 
vertex -0.7071067811865476 5.884003000792043e-17 0.5 
vertex -1.0606601717798214 -1.0606601717798212 0.0 
endloop
endfacet
facet normal -0.9486832980505139 0.3162277660168382 -2.979040983896728e-16 
outer loop
vertex -0.8249579113843054 -0.35355339059327373 0.0 
vertex -1.0606601717798214 -1.0606601717798212 0.0 
vertex -0.7071067811865476 5.884003000792043e-17 0.5 
endloop
endfacet
facet normal -0.9486832980505139 0.3162277660168377 0.0 
outer loop
vertex -0.8249579113843054 -0.35355339059327373 0.0 
vertex -0.7071067811865476 5.884003000792043e-17 0.5 
vertex -0.7071067811865476 5.884003000792043e-17 -0.5 
endloop
endfacet
facet normal -0.9486832980505139 0.3162277660168382 3.351421106883819e-16 
outer loop
vertex -0.8249579113843054 -0.35355339059327373 0.0 
vertex -0.7071067811865476 5.884003000792043e-17 -0.5 
vertex -1.0606601717798214 -1.0606601717798212 0.0 
endloop
endfacet
facet normal -0.3162277660168379 0.3162277660168379 -0.8944271909999159 
outer loop
vertex -0.5892556509887896 0.5892556509887896 -0.3333333333333333 
vertex -1.0606601717798212 1.0606601717798214 0.0 
vertex 7.341226667400463e-17 0.7071067811865476 -0.5 
endloop
endfacet
facet normal -0.3162277660168379 0.316227766016838 -0.8944271909999159 
outer loop
vertex -0.5892556509887896 0.5892556509887896 -0.3333333333333333 
vertex 7.341226667400463e-17 0.7071067811865476 -0.5 
vertex -0.7071067811865476 5.884003000792043e-17 -0.5 
endloop
endfacet
facet normal -0.3162277660168378 0.31622776601683805 -0.894427190999916 
outer loop
vertex -0.5892556509887896 0.5892556509887896 -0.3333333333333333 
vertex -0.7071067811865476 5.884003000792043e-17 -0.5 
vertex -1.0606601717798212 1.0606601717798214 0.0 
endloop
endfacet
facet normal -0.9486832980505139 -0.31622776601683783 7.447602459741818e-17 
outer loop
vertex -0.8249579113843054 0.3535533905932738 0.0 
vertex -1.0606601717798212 1.0606601717798214 0.0 
vertex -0.7071067811865476 5.884003000792043e-17 -0.5 
endloop
endfacet
facet normal -0.9486832980505139 -0.3162277660168378 0.0 
outer loop
vertex -0.8249579113843054 0.3535533905932738 0.0 
vertex -0.7071067811865476 5.884003000792043e-17 -0.5 
vertex -0.7071067811865476 5.884003000792043e-17 0.5 
endloop
endfacet
facet normal -0.9486832980505139 -0.31622776601683783 -3.723801229870909e-17 
outer loop
vertex -0.8249579113843054 0.3535533905932738 0.0 
vertex -0.7071067811865476 5.884003000792043e-17 0.5 
vertex -1.0606601717798212 1.0606601717798214 0.0 
endloop
endfacet
facet normal -0.3162277660168379 0.316227766016838 0.894427190999916 
outer loop
vertex -0.5892556509887896 0.5892556509887896 0.3333333333333333 
vertex -1.0606601717798212 1.0606601717798214 0.0 
vertex -0.7071067811865476 5.884003000792043e-17 0.5 
endloop
endfacet
facet normal -0.3162277660168379 0.316227766016838 0.8944271909999159 
outer loop
vertex -0.5892556509887896 0.5892556509887896 0.3333333333333333 
vertex -0.7071067811865476 5.884003000792043e-17 0.5 
vertex 7.341226667400463e-17 0.7071067811865476 0.5 
endloop
endfacet
facet normal -0.3162277660168379 0.31622776601683794 0.8944271909999159 
outer loop
vertex -0.5892556509887896 0.5892556509887896 0.3333333333333333 
vertex 7.341226667400463e-17 0.7071067811865476 0.5 
vertex -1.0606601717798212 1.0606601717798214 0.0 
endloop
endfacet
facet normal 0.31622776601683816 0.9486832980505138 -2.9790409838967276e-16 
outer loop
vertex -0.35355339059327373 0.8249579113843054 0.0 
vertex -1.0606601717798212 1.0606601717798214 0.0 
vertex 7.341226667400463e-17 0.7071067811865476 0.5 
endloop
endfacet
facet normal 0.3162277660168377 0.9486832980505139 0.0 
outer loop
vertex -0.35355339059327373 0.8249579113843054 0.0 
vertex 7.341226667400463e-17 0.7071067811865476 0.5 
vertex 7.341226667400463e-17 0.7071067811865476 -0.5 
endloop
endfacet
facet normal 0.31622776601683816 0.9486832980505138 3.3514211068838184e-16 
outer loop
vertex -0.35355339059327373 0.8249579113843054 0.0 
vertex 7.341226667400463e-17 0.7071067811865476 -0.5 
vertex -1.0606601717798212 1.0606601717798214 0.0 
endloop
endfacet
facet normal 0.3162277660168379 0.3162277660168379 -0.8944271909999159 
outer loop
vertex 0.5892556509887896 0.5892556509887896 -0.3333333333333333 
vertex 1.0606601717798214 1.0606601717798212 0.0 
vertex 0.7071067811865476 -2.7755575615628914e-17 -0.5 
endloop
endfacet
facet normal 0.31622776601683805 0.316227766016838 -0.8944271909999159 
outer loop
vertex 0.5892556509887896 0.5892556509887896 -0.3333333333333333 
vertex 0.7071067811865476 -2.7755575615628914e-17 -0.5 
vertex 7.341226667400463e-17 0.7071067811865476 -0.5 
endloop
endfacet
facet normal 0.31622776601683805 0.3162277660168378 -0.894427190999916 
outer loop
vertex 0.5892556509887896 0.5892556509887896 -0.3333333333333333 
vertex 7.341226667400463e-17 0.7071067811865476 -0.5 
vertex 1.0606601717798214 1.0606601717798212 0.0 
endloop
endfacet
facet normal -0.31622776601683783 0.9486832980505139 7.447602459741818e-17 
outer loop
vertex 0.3535533905932738 0.8249579113843054 0.0 
vertex 1.0606601717798214 1.0606601717798212 0.0 
vertex 7.341226667400463e-17 0.7071067811865476 -0.5 
endloop
endfacet
facet normal -0.3162277660168378 0.9486832980505139 0.0 
outer loop
vertex 0.3535533905932738 0.8249579113843054 0.0 
vertex 7.341226667400463e-17 0.7071067811865476 -0.5 
vertex 7.341226667400463e-17 0.7071067811865476 0.5 
endloop
endfacet
facet normal -0.31622776601683783 0.9486832980505139 -3.723801229870909e-17 
outer loop
vertex 0.3535533905932738 0.8249579113843054 0.0 
vertex 7.341226667400463e-17 0.7071067811865476 0.5 
vertex 1.0606601717798214 1.0606601717798212 0.0 
endloop
endfacet
facet normal 0.316227766016838 0.3162277660168379 0.894427190999916 
outer loop
vertex 0.5892556509887896 0.5892556509887896 0.3333333333333333 
vertex 1.0606601717798214 1.0606601717798212 0.0 
vertex 7.341226667400463e-17 0.7071067811865476 0.5 
endloop
endfacet
facet normal 0.31622776601683805 0.316227766016838 0.8944271909999159 
outer loop
vertex 0.5892556509887896 0.5892556509887896 0.3333333333333333 
vertex 7.341226667400463e-17 0.7071067811865476 0.5 
vertex 0.7071067811865476 -2.7755575615628914e-17 0.5 
endloop
endfacet
facet normal 0.3162277660168379 0.31622776601683794 0.894427190999916 
outer loop
vertex 0.5892556509887896 0.5892556509887896 0.3333333333333333 
vertex 0.7071067811865476 -2.7755575615628914e-17 0.5 
vertex 1.0606601717798214 1.0606601717798212 0.0 
endloop
endfacet
facet normal 0.9486832980505139 -0.3162277660168382 -2.979040983896728e-16 
outer loop
vertex 0.8249579113843054 0.35355339059327373 0.0 
vertex 1.0606601717798214 1.0606601717798212 0.0 
vertex 0.7071067811865476 -2.7755575615628914e-17 0.5 
endloop
endfacet
facet normal 0.9486832980505139 -0.3162277660168378 0.0 
outer loop
vertex 0.8249579113843054 0.35355339059327373 0.0 
vertex 0.7071067811865476 -2.7755575615628914e-17 0.5 
vertex 0.7071067811865476 -2.7755575615628914e-17 -0.5 
endloop
endfacet
facet normal 0.9486832980505139 -0.3162277660168382 3.351421106883819e-16 
outer loop
vertex 0.8249579113843054 0.35355339059327373 0.0 
vertex 0.7071067811865476 -2.7755575615628914e-17 -0.5 
vertex 1.0606601717798214 1.0606601717798212 0.0 
endloop
endfacet
facet normal 0.3162277660168379 -0.3162277660168379 -0.8944271909999159 
outer loop
vertex 0.5892556509887896 -0.5892556509887896 -0.3333333333333333 
vertex 1.0606601717798212 -1.0606601717798214 0.0 
vertex -9.977894457309405e-17 -0.7071067811865476 -0.5 
endloop
endfacet
facet normal 0.3162277660168379 -0.31622776601683794 -0.8944271909999159 
outer loop
vertex 0.5892556509887896 -0.5892556509887896 -0.3333333333333333 
vertex -9.977894457309405e-17 -0.7071067811865476 -0.5 
vertex 0.7071067811865476 -2.7755575615628914e-17 -0.5 
endloop
endfacet
facet normal 0.3162277660168379 -0.316227766016838 -0.894427190999916 
outer loop
vertex 0.5892556509887896 -0.5892556509887896 -0.3333333333333333 
vertex 0.7071067811865476 -2.7755575615628914e-17 -0.5 
vertex 1.0606601717798212 -1.0606601717798214 0.0 
endloop
endfacet
facet normal 0.9486832980505139 0.31622776601683783 7.447602459741818e-17 
outer loop
vertex 0.8249579113843054 -0.3535533905932738 0.0 
vertex 1.0606601717798212 -1.0606601717798214 0.0 
vertex 0.7071067811865476 -2.7755575615628914e-17 -0.5 
endloop
endfacet
facet normal 0.9486832980505139 0.3162277660168378 -0.0 
outer loop
vertex 0.8249579113843054 -0.3535533905932738 0.0 
vertex 0.7071067811865476 -2.7755575615628914e-17 -0.5 
vertex 0.7071067811865476 -2.7755575615628914e-17 0.5 
endloop
endfacet
facet normal 0.9486832980505139 0.31622776601683783 -3.723801229870909e-17 
outer loop
vertex 0.8249579113843054 -0.3535533905932738 0.0 
vertex 0.7071067811865476 -2.7755575615628914e-17 0.5 
vertex 1.0606601717798212 -1.0606601717798214 0.0 
endloop
endfacet
facet normal 0.3162277660168379 -0.316227766016838 0.894427190999916 
outer loop
vertex 0.5892556509887896 -0.5892556509887896 0.3333333333333333 
vertex 1.0606601717798212 -1.0606601717798214 0.0 
vertex 0.7071067811865476 -2.7755575615628914e-17 0.5 
endloop
endfacet
facet normal 0.3162277660168379 -0.31622776601683794 0.8944271909999159 
outer loop
vertex 0.5892556509887896 -0.5892556509887896 0.3333333333333333 
vertex 0.7071067811865476 -2.7755575615628914e-17 0.5 
vertex -9.977894457309405e-17 -0.7071067811865476 0.5 
endloop
endfacet
facet normal 0.3162277660168379 -0.31622776601683794 0.8944271909999159 
outer loop
vertex 0.5892556509887896 -0.5892556509887896 0.3333333333333333 
vertex -9.977894457309405e-17 -0.7071067811865476 0.5 
vertex 1.0606601717798212 -1.0606601717798214 0.0 
endloop
endfacet
facet normal -0.31622776601683816 -0.9486832980505138 -2.9790409838967276e-16 
outer loop
vertex 0.35355339059327373 -0.8249579113843054 0.0 
vertex 1.0606601717798212 -1.0606601717798214 0.0 
vertex -9.977894457309405e-17 -0.7071067811865476 0.5 
endloop
endfacet
facet normal -0.31622776601683766 -0.9486832980505139 -0.0 
outer loop
vertex 0.35355339059327373 -0.8249579113843054 0.0 
vertex -9.977894457309405e-17 -0.7071067811865476 0.5 
vertex -9.977894457309405e-17 -0.7071067811865476 -0.5 
endloop
endfacet
facet normal -0.3162277660168382 -0.9486832980505137 4.096181352858001e-16 
outer loop
vertex 0.35355339059327373 -0.8249579113843054 0.0 
vertex -9.977894457309405e-17 -0.7071067811865476 -0.5 
vertex 1.0606601717798212 -1.0606601717798214 0.0 
endloop
endfacet
endsolid cube
