solid cube
facet normal 0.44172610429938636 0.4417261042993861 -0.7808688094430303 
outer loop
vertex -0.2357022603955159 -0.2357022603955158 -0.3666666666666667 
vertex 0.0 2.0816681711721685e-17 -0.09999999999999998 
vertex -9.977894457309405e-17 -0.7071067811865476 -0.5 
endloop
endfacet
facet normal 0.44172610429938614 0.441726104299386 -0.7808688094430305 
outer loop
vertex -0.2357022603955159 -0.2357022603955158 -0.3666666666666667 
vertex -9.977894457309405e-17 -0.7071067811865476 -0.5 
vertex -0.7071067811865476 5.884003000792043e-17 -0.5 
endloop
endfacet
facet normal 0.4417261042993862 0.4417261042993862 -0.7808688094430303 
outer loop
vertex -0.2357022603955159 -0.2357022603955158 -0.3666666666666667 
vertex -0.7071067811865476 5.884003000792043e-17 -0.5 
vertex 0.0 2.0816681711721685e-17 -0.09999999999999998 
endloop
endfacet
facet normal 0.4417261042993861 -0.44172610429938636 -0.7808688094430303 
outer loop
vertex -0.2357022603955158 0.2357022603955159 -0.3666666666666667 
vertex 0.0 2.0816681711721685e-17 -0.09999999999999998 
vertex -0.7071067811865476 5.884003000792043e-17 -0.5 
endloop
endfacet
facet normal 0.4417261042993861 -0.4417261042993862 -0.7808688094430304 
outer loop
vertex -0.2357022603955158 0.2357022603955159 -0.3666666666666667 
vertex -0.7071067811865476 5.884003000792043e-17 -0.5 
vertex 7.341226667400463e-17 0.7071067811865476 -0.5 
endloop
endfacet
facet normal 0.4417261042993862 -0.4417261042993862 -0.7808688094430304 
outer loop
vertex -0.2357022603955158 0.2357022603955159 -0.3666666666666667 
vertex 7.341226667400463e-17 0.7071067811865476 -0.5 
vertex 0.0 2.0816681711721685e-17 -0.09999999999999998 
endloop
endfacet
facet normal -0.4417261042993863 -0.4417261042993861 -0.7808688094430302 
outer loop
vertex 0.2357022603955159 0.23570226039551587 -0.3666666666666667 
vertex 0.0 2.0816681711721685e-17 -0.09999999999999998 
vertex 7.341226667400463e-17 0.7071067811865476 -0.5 
endloop
endfacet
facet normal -0.44172610429938614 -0.4417261042993861 -0.7808688094430304 
outer loop
vertex 0.2357022603955159 0.23570226039551587 -0.3666666666666667 
vertex 7.341226667400463e-17 0.7071067811865476 -0.5 
vertex 0.7071067811865476 -2.7755575615628914e-17 -0.5 
endloop
endfacet
facet normal -0.44172610429938625 -0.44172610429938614 -0.7808688094430303 
outer loop
vertex 0.2357022603955159 0.23570226039551587 -0.3666666666666667 
vertex 0.7071067811865476 -2.7755575615628914e-17 -0.5 
vertex 0.0 2.0816681711721685e-17 -0.09999999999999998 
endloop
endfacet
facet normal -0.4417261042993861 0.4417261042993863 -0.7808688094430303 
outer loop
vertex 0.2357022603955158 -0.23570226039551587 -0.3666666666666667 
vertex 0.0 2.0816681711721685e-17 -0.09999999999999998 
vertex 0.7071067811865476 -2.7755575615628914e-17 -0.5 
endloop
endfacet
facet normal -0.4417261042993861 0.44172610429938614 -0.7808688094430305 
outer loop
vertex 0.2357022603955158 -0.23570226039551587 -0.3666666666666667 
vertex 0.7071067811865476 -2.7755575615628914e-17 -0.5 
vertex -9.977894457309405e-17 -0.7071067811865476 -0.5 
endloop
endfacet
facet normal -0.44172610429938614 0.44172610429938625 -0.7808688094430303 
outer loop
vertex 0.2357022603955158 -0.23570226039551587 -0.3666666666666667 
vertex -9.977894457309405e-17 -0.7071067811865476 -0.5 
vertex 0.0 2.0816681711721685e-17 -0.09999999999999998 
endloop
endfacet
facet normal -0.44172610429938614 -0.44172610429938625 0.7808688094430303 
outer loop
vertex 0.2357022603955159 0.23570226039551587 0.3666666666666667 
vertex 2.8108394723554008e-18 2.7755575615628914e-17 0.09999999999999998 
vertex 0.7071067811865476 -2.7755575615628914e-17 0.5 
endloop
endfacet
facet normal -0.44172610429938614 -0.4417261042993861 0.7808688094430305 
outer loop
vertex 0.2357022603955159 0.23570226039551587 0.3666666666666667 
vertex 0.7071067811865476 -2.7755575615628914e-17 0.5 
vertex 7.341226667400463e-17 0.7071067811865476 0.5 
endloop
endfacet
facet normal -0.4417261042993862 -0.4417261042993862 0.7808688094430304 
outer loop
vertex 0.2357022603955159 0.23570226039551587 0.3666666666666667 
vertex 7.341226667400463e-17 0.7071067811865476 0.5 
vertex 2.8108394723554008e-18 2.7755575615628914e-17 0.09999999999999998 
endloop
endfacet
facet normal 0.4417261042993863 -0.44172610429938614 0.7808688094430303 
outer loop
vertex -0.2357022603955158 0.2357022603955159 0.3666666666666667 
vertex 2.8108394723554008e-18 2.7755575615628914e-17 0.09999999999999998 
vertex 7.341226667400463e-17 0.7071067811865476 0.5 
endloop
endfacet
facet normal 0.44172610429938597 -0.4417261042993861 0.7808688094430305 
outer loop
vertex -0.2357022603955158 0.2357022603955159 0.3666666666666667 
vertex 7.341226667400463e-17 0.7071067811865476 0.5 
vertex -0.7071067811865476 5.884003000792043e-17 0.5 
endloop
endfacet
facet normal 0.441726104299386 -0.44172610429938636 0.7808688094430303 
outer loop
vertex -0.2357022603955158 0.2357022603955159 0.3666666666666667 
vertex -0.7071067811865476 5.884003000792043e-17 0.5 
vertex 2.8108394723554008e-18 2.7755575615628914e-17 0.09999999999999998 
endloop
endfacet
facet normal 0.44172610429938614 0.44172610429938625 0.7808688094430303 
outer loop
vertex -0.2357022603955159 -0.2357022603955158 0.3666666666666667 
vertex 2.8108394723554008e-18 2.7755575615628914e-17 0.09999999999999998 
vertex -0.7071067811865476 5.884003000792043e-17 0.5 
endloop
endfacet
facet normal 0.441726104299386 0.4417261042993859 0.7808688094430306 
outer loop
vertex -0.2357022603955159 -0.2357022603955158 0.3666666666666667 
vertex -0.7071067811865476 5.884003000792043e-17 0.5 
vertex -9.977894457309405e-17 -0.7071067811865476 0.5 
endloop
endfacet
facet normal 0.4417261042993864 0.4417261042993861 0.7808688094430303 
outer loop
vertex -0.2357022603955159 -0.2357022603955158 0.3666666666666667 
vertex -9.977894457309405e-17 -0.7071067811865476 0.5 
vertex 2.8108394723554008e-18 2.7755575615628914e-17 0.09999999999999998 
endloop
endfacet
facet normal -0.44172610429938625 0.44172610429938625 0.7808688094430303 
outer loop
vertex 0.2357022603955158 -0.23570226039551587 0.3666666666666667 
vertex 2.8108394723554008e-18 2.7755575615628914e-17 0.09999999999999998 
vertex -9.977894457309405e-17 -0.7071067811865476 0.5 
endloop
endfacet
facet normal -0.4417261042993861 0.44172610429938614 0.7808688094430304 
outer loop
vertex 0.2357022603955158 -0.23570226039551587 0.3666666666666667 
vertex -9.977894457309405e-17 -0.7071067811865476 0.5 
vertex 0.7071067811865476 -2.7755575615628914e-17 0.5 
endloop
endfacet
facet normal -0.4417261042993861 0.44172610429938636 0.7808688094430303 
outer loop
vertex 0.2357022603955158 -0.23570226039551587 0.3666666666666667 
vertex 0.7071067811865476 -2.7755575615628914e-17 0.5 
vertex 2.8108394723554008e-18 2.7755575615628914e-17 0.09999999999999998 
endloop
endfacet
facet normal -0.5521576303742327 -0.5521576303742327 0.6246950475544243 
outer loop
vertex -0.25927248643506745 -0.25927248643506745 -0.3333333333333333 
vertex -0.07071067811865478 -0.07071067811865472 0.0 
vertex -0.7071067811865476 5.884003000792043e-17 -0.5 
endloop
endfacet
facet normal -0.5521576303742327 -0.5521576303742326 0.6246950475544243 
outer loop
vertex -0.25927248643506745 -0.25927248643506745 -0.3333333333333333 
vertex -0.7071067811865476 5.884003000792043e-17 -0.5 
vertex -9.977894457309405e-17 -0.7071067811865476 -0.5 
endloop
endfacet
facet normal -0.5521576303742328 -0.5521576303742327 0.6246950475544243 
outer loop
vertex -0.25927248643506745 -0.25927248643506745 -0.3333333333333333 
vertex -9.977894457309405e-17 -0.7071067811865476 -0.5 
vertex -0.07071067811865478 -0.07071067811865472 0.0 
endloop
endfacet
facet normal -0.9938837346736188 -0.11043152607484641 0.0 
outer loop
vertex -0.023570226039551657 -0.49497474683058335 0.0 
vertex -0.07071067811865478 -0.07071067811865472 0.0 
vertex -9.977894457309405e-17 -0.7071067811865476 -0.5 
endloop
endfacet
facet normal -0.993883734673619 -0.11043152607484644 0.0 
outer loop
vertex -0.023570226039551657 -0.49497474683058335 0.0 
vertex -9.977894457309405e-17 -0.7071067811865476 -0.5 
vertex -9.977894457309405e-17 -0.7071067811865476 0.5 
endloop
endfacet
facet normal -0.9938837346736188 -0.11043152607484641 0.0 
outer loop
vertex -0.023570226039551657 -0.49497474683058335 0.0 
vertex -9.977894457309405e-17 -0.7071067811865476 0.5 
vertex -0.07071067811865478 -0.07071067811865472 0.0 
endloop
endfacet
facet normal -0.5521576303742329 -0.5521576303742326 -0.6246950475544243 
outer loop
vertex -0.25927248643506745 -0.2592724864350674 0.3333333333333333 
vertex -0.07071067811865478 -0.07071067811865472 0.0 
vertex -9.977894457309405e-17 -0.7071067811865476 0.5 
endloop
endfacet
facet normal -0.5521576303742327 -0.5521576303742326 -0.6246950475544243 
outer loop
vertex -0.25927248643506745 -0.2592724864350674 0.3333333333333333 
vertex -9.977894457309405e-17 -0.7071067811865476 0.5 
vertex -0.7071067811865476 5.884003000792043e-17 0.5 
endloop
endfacet
facet normal -0.5521576303742327 -0.5521576303742326 -0.6246950475544244 
outer loop
vertex -0.25927248643506745 -0.2592724864350674 0.3333333333333333 
vertex -0.7071067811865476 5.884003000792043e-17 0.5 
vertex -0.07071067811865478 -0.07071067811865472 0.0 
endloop
endfacet
facet normal -0.11043152607484658 -0.993883734673619 1.6255097464786614e-17 
outer loop
vertex -0.49497474683058335 -0.02357022603955154 0.0 
vertex -0.07071067811865478 -0.07071067811865472 0.0 
vertex -0.7071067811865476 5.884003000792043e-17 0.5 
endloop
endfacet
facet normal -0.11043152607484662 -0.9938837346736188 -0.0 
outer loop
vertex -0.49497474683058335 -0.02357022603955154 0.0 
vertex -0.7071067811865476 5.884003000792043e-17 0.5 
vertex -0.7071067811865476 5.884003000792043e-17 -0.5 
endloop
endfacet
facet normal -0.11043152607484655 -0.9938837346736188 -3.251019492957322e-17 
outer loop
vertex -0.49497474683058335 -0.02357022603955154 0.0 
vertex -0.7071067811865476 5.884003000792043e-17 -0.5 
vertex -0.07071067811865478 -0.07071067811865472 0.0 
endloop
endfacet
facet normal -0.5521576303742327 0.5521576303742327 0.6246950475544243 
outer loop
vertex -0.2592724864350674 0.25927248643506745 -0.3333333333333333 
vertex -0.07071067811865472 0.07071067811865478 0.0 
vertex 7.341226667400463e-17 0.7071067811865476 -0.5 
endloop
endfacet
facet normal -0.5521576303742326 0.5521576303742327 0.6246950475544244 
outer loop
vertex -0.2592724864350674 0.25927248643506745 -0.3333333333333333 
vertex 7.341226667400463e-17 0.7071067811865476 -0.5 
vertex -0.7071067811865476 5.884003000792043e-17 -0.5 
endloop
endfacet
facet normal -0.5521576303742326 0.5521576303742327 0.6246950475544244 
outer loop
vertex -0.2592724864350674 0.25927248643506745 -0.3333333333333333 
vertex -0.7071067811865476 5.884003000792043e-17 -0.5 
vertex -0.07071067811865472 0.07071067811865478 0.0 
endloop
endfacet
facet normal -0.11043152607484648 0.9938837346736188 0.0 
outer loop
vertex -0.49497474683058335 0.02357022603955163 0.0 
vertex -0.07071067811865472 0.07071067811865478 0.0 
vertex -0.7071067811865476 5.884003000792043e-17 -0.5 
endloop
endfacet
facet normal -0.11043152607484649 0.9938837346736188 0.0 
outer loop
vertex -0.49497474683058335 0.02357022603955163 0.0 
vertex -0.7071067811865476 5.884003000792043e-17 -0.5 
vertex -0.7071067811865476 5.884003000792043e-17 0.5 
endloop
endfacet
facet normal -0.11043152607484648 0.9938837346736188 0.0 
outer loop
vertex -0.49497474683058335 0.02357022603955163 0.0 
vertex -0.7071067811865476 5.884003000792043e-17 0.5 
vertex -0.07071067811865472 0.07071067811865478 0.0 
endloop
endfacet
facet normal -0.5521576303742326 0.5521576303742328 -0.6246950475544242 
outer loop
vertex -0.2592724864350674 0.25927248643506745 0.3333333333333333 
vertex -0.07071067811865472 0.07071067811865478 0.0 
vertex -0.7071067811865476 5.884003000792043e-17 0.5 
endloop
endfacet
facet normal -0.5521576303742326 0.5521576303742328 -0.6246950475544243 
outer loop
vertex -0.2592724864350674 0.25927248643506745 0.3333333333333333 
vertex -0.7071067811865476 5.884003000792043e-17 0.5 
vertex 7.341226667400463e-17 0.7071067811865476 0.5 
endloop
endfacet
facet normal -0.5521576303742326 0.5521576303742327 -0.6246950475544244 
outer loop
vertex -0.2592724864350674 0.25927248643506745 0.3333333333333333 
vertex 7.341226667400463e-17 0.7071067811865476 0.5 
vertex -0.07071067811865472 0.07071067811865478 0.0 
endloop
endfacet
facet normal -0.9938837346736188 0.11043152607484659 0.0 
outer loop
vertex -0.02357022603955153 0.49497474683058335 0.0 
vertex -0.07071067811865472 0.07071067811865478 0.0 
vertex 7.341226667400463e-17 0.7071067811865476 0.5 
endloop
endfacet
facet normal -0.9938837346736188 0.11043152607484663 0.0 
outer loop
vertex -0.02357022603955153 0.49497474683058335 0.0 
vertex 7.341226667400463e-17 0.7071067811865476 0.5 
vertex 7.341226667400463e-17 0.7071067811865476 -0.5 
endloop
endfacet
facet normal -0.9938837346736188 0.11043152607484658 -3.251019492957322e-17 
outer loop
vertex -0.02357022603955153 0.49497474683058335 0.0 
vertex 7.341226667400463e-17 0.7071067811865476 -0.5 
vertex -0.07071067811865472 0.07071067811865478 0.0 
endloop
endfacet
facet normal 0.5521576303742327 0.5521576303742327 0.6246950475544243 
outer loop
vertex 0.25927248643506745 0.25927248643506745 -0.3333333333333333 
vertex 0.07071067811865478 0.07071067811865478 0.0 
vertex 0.7071067811865476 -2.7755575615628914e-17 -0.5 
endloop
endfacet
facet normal 0.5521576303742328 0.5521576303742327 0.6246950475544242 
outer loop
vertex 0.25927248643506745 0.25927248643506745 -0.3333333333333333 
vertex 0.7071067811865476 -2.7755575615628914e-17 -0.5 
vertex 7.341226667400463e-17 0.7071067811865476 -0.5 
endloop
endfacet
facet normal 0.5521576303742327 0.5521576303742327 0.6246950475544244 
outer loop
vertex 0.25927248643506745 0.25927248643506745 -0.3333333333333333 
vertex 7.341226667400463e-17 0.7071067811865476 -0.5 
vertex 0.07071067811865478 0.07071067811865478 0.0 
endloop
endfacet
facet normal 0.993883734673619 0.11043152607484648 0.0 
outer loop
vertex 0.02357022603955164 0.49497474683058335 0.0 
vertex 0.07071067811865478 0.07071067811865478 0.0 
vertex 7.341226667400463e-17 0.7071067811865476 -0.5 
endloop
endfacet
facet normal 0.993883734673619 0.11043152607484649 -0.0 
outer loop
vertex 0.02357022603955164 0.49497474683058335 0.0 
vertex 7.341226667400463e-17 0.7071067811865476 -0.5 
vertex 7.341226667400463e-17 0.7071067811865476 0.5 
endloop
endfacet
facet normal 0.9938837346736188 0.11043152607484645 8.127548732393305e-18 
outer loop
vertex 0.02357022603955164 0.49497474683058335 0.0 
vertex 7.341226667400463e-17 0.7071067811865476 0.5 
vertex 0.07071067811865478 0.07071067811865478 0.0 
endloop
endfacet
facet normal 0.5521576303742328 0.5521576303742326 -0.6246950475544242 
outer loop
vertex 0.25927248643506745 0.25927248643506745 0.3333333333333333 
vertex 0.07071067811865478 0.07071067811865478 0.0 
vertex 7.341226667400463e-17 0.7071067811865476 0.5 
endloop
endfacet
facet normal 0.5521576303742328 0.5521576303742327 -0.6246950475544242 
outer loop
vertex 0.25927248643506745 0.25927248643506745 0.3333333333333333 
vertex 7.341226667400463e-17 0.7071067811865476 0.5 
vertex 0.7071067811865476 -2.7755575615628914e-17 0.5 
endloop
endfacet
facet normal 0.5521576303742328 0.5521576303742326 -0.6246950475544244 
outer loop
vertex 0.25927248643506745 0.25927248643506745 0.3333333333333333 
vertex 0.7071067811865476 -2.7755575615628914e-17 0.5 
vertex 0.07071067811865478 0.07071067811865478 0.0 
endloop
endfacet
facet normal 0.11043152607484663 0.993883734673619 -1.6255097464786614e-17 
outer loop
vertex 0.49497474683058335 0.023570226039551573 0.0 
vertex 0.07071067811865478 0.07071067811865478 0.0 
vertex 0.7071067811865476 -2.7755575615628914e-17 0.5 
endloop
endfacet
facet normal 0.11043152607484663 0.9938837346736188 0.0 
outer loop
vertex 0.49497474683058335 0.023570226039551573 0.0 
vertex 0.7071067811865476 -2.7755575615628914e-17 0.5 
vertex 0.7071067811865476 -2.7755575615628914e-17 -0.5 
endloop
endfacet
facet normal 0.1104315260748466 0.9938837346736188 -1.625509746478661e-17 
outer loop
vertex 0.49497474683058335 0.023570226039551573 0.0 
vertex 0.7071067811865476 -2.7755575615628914e-17 -0.5 
vertex 0.07071067811865478 0.07071067811865478 0.0 
endloop
endfacet
facet normal 0.5521576303742327 -0.5521576303742328 0.6246950475544244 
outer loop
vertex 0.2592724864350674 -0.25927248643506745 -0.3333333333333333 
vertex 0.07071067811865472 -0.07071067811865472 0.0 
vertex -9.977894457309405e-17 -0.7071067811865476 -0.5 
endloop
endfacet
facet normal 0.5521576303742327 -0.5521576303742327 0.6246950475544242 
outer loop
vertex 0.2592724864350674 -0.25927248643506745 -0.3333333333333333 
vertex -9.977894457309405e-17 -0.7071067811865476 -0.5 
vertex 0.7071067811865476 -2.7755575615628914e-17 -0.5 
endloop
endfacet
facet normal 0.5521576303742327 -0.5521576303742327 0.6246950475544244 
outer loop
vertex 0.2592724864350674 -0.25927248643506745 -0.3333333333333333 
vertex 0.7071067811865476 -2.7755575615628914e-17 -0.5 
vertex 0.07071067811865472 -0.07071067811865472 0.0 
endloop
endfacet
facet normal 0.11043152607484641 -0.9938837346736188 -3.251019492957322e-17 
outer loop
vertex 0.49497474683058335 -0.023570226039551594 0.0 
vertex 0.07071067811865472 -0.07071067811865472 0.0 
vertex 0.7071067811865476 -2.7755575615628914e-17 -0.5 
endloop
endfacet
facet normal 0.11043152607484646 -0.9938837346736188 0.0 
outer loop
vertex 0.49497474683058335 -0.023570226039551594 0.0 
vertex 0.7071067811865476 -2.7755575615628914e-17 -0.5 
vertex 0.7071067811865476 -2.7755575615628914e-17 0.5 
endloop
endfacet
facet normal 0.11043152607484641 -0.9938837346736188 2.4382646197179916e-17 
outer loop
vertex 0.49497474683058335 -0.023570226039551594 0.0 
vertex 0.7071067811865476 -2.7755575615628914e-17 0.5 
vertex 0.07071067811865472 -0.07071067811865472 0.0 
endloop
endfacet
facet normal 0.5521576303742327 -0.5521576303742328 -0.6246950475544244 
outer loop
vertex 0.2592724864350674 -0.25927248643506745 0.3333333333333333 
vertex 0.07071067811865472 -0.07071067811865472 0.0 
vertex 0.7071067811865476 -2.7755575615628914e-17 0.5 
endloop
endfacet
facet normal 0.5521576303742326 -0.5521576303742327 -0.6246950475544244 
outer loop
vertex 0.2592724864350674 -0.25927248643506745 0.3333333333333333 
vertex 0.7071067811865476 -2.7755575615628914e-17 0.5 
vertex -9.977894457309405e-17 -0.7071067811865476 0.5 
endloop
endfacet
facet normal 0.5521576303742326 -0.5521576303742328 -0.6246950475544244 
outer loop
vertex 0.2592724864350674 -0.25927248643506745 0.3333333333333333 
vertex -9.977894457309405e-17 -0.7071067811865476 0.5 
vertex 0.07071067811865472 -0.07071067811865472 0.0 
endloop
endfacet
facet normal 0.9938837346736188 -0.1104315260748466 3.251019492957322e-17 
outer loop
vertex 0.02357022603955151 -0.49497474683058335 0.0 
vertex 0.07071067811865472 -0.07071067811865472 0.0 
vertex -9.977894457309405e-17 -0.7071067811865476 0.5 
endloop
endfacet
facet normal 0.9938837346736188 -0.11043152607484669 0.0 
outer loop
vertex 0.02357022603955151 -0.49497474683058335 0.0 
vertex -9.977894457309405e-17 -0.7071067811865476 0.5 
vertex -9.977894457309405e-17 -0.7071067811865476 -0.5 
endloop
endfacet
facet normal 0.9938837346736188 -0.1104315260748466 -3.251019492957322e-17 
outer loop
vertex 0.02357022603955151 -0.49497474683058335 0.0 
vertex -9.977894457309405e-17 -0.7071067811865476 -0.5 
vertex 0.07071067811865472 -0.07071067811865472 0.0 
endloop
endfacet
endsolid cube
