solid smooth-test
facet normal 0.0008062477093738544 -0.3953118033953867 -0.9185466390232551 
outer loop
vertex -5.551115123125783e-17 -0.565627579796326 -0.9087282735978484 
vertex 1.0744443529331349e-16 -1.204776599665439e-18 -1.1521554977801935 
vertex 0.6243195730135425 -0.6243195730135425 -0.8829212074107313 
endloop
endfacet
facet normal 0.001018285882295542 -0.39341427091157877 -0.9193607423296759 
outer loop
vertex -5.551115123125783e-17 -0.565627579796326 -0.9087282735978484 
vertex 0.6243195730135425 -0.6243195730135425 -0.8829212074107313 
vertex -1.1040792123144054e-16 -1.0138711731582193 -0.7169151817897371 
endloop
endfacet
facet normal -0.0010182858822951773 -0.3934142709115789 -0.9193607423296759 
outer loop
vertex -5.551115123125783e-17 -0.565627579796326 -0.9087282735978484 
vertex -1.1040792123144054e-16 -1.0138711731582193 -0.7169151817897371 
vertex -0.6243195730135427 -0.6243195730135426 -0.8829212074107315 
endloop
endfacet
facet normal -0.0008062477093734481 -0.39531180339538663 -0.9185466390232551 
outer loop
vertex -5.551115123125783e-17 -0.565627579796326 -0.9087282735978484 
vertex -0.6243195730135427 -0.6243195730135426 -0.8829212074107315 
vertex 1.0744443529331349e-16 -1.204776599665439e-18 -1.1521554977801935 
endloop
endfacet
facet normal -0.39341427091157866 -0.0010182858822951597 -0.919360742329676 
outer loop
vertex -0.5656275797963262 -3.0119414991635977e-19 -0.9087282735978484 
vertex -0.6243195730135427 -0.6243195730135426 -0.8829212074107315 
vertex -1.0138711731582195 1.0260166558954491e-16 -0.7169151817897371 
endloop
endfacet
facet normal -0.3934142709115787 0.0010182858822955874 -0.919360742329676 
outer loop
vertex -0.5656275797963262 -3.0119414991635977e-19 -0.9087282735978484 
vertex -1.0138711731582195 1.0260166558954491e-16 -0.7169151817897371 
vertex -0.6243195730135426 0.6243195730135425 -0.8829212074107313 
endloop
endfacet
facet normal -0.3953118033953866 0.0008062477093738452 -0.9185466390232553 
outer loop
vertex -0.5656275797963262 -3.0119414991635977e-19 -0.9087282735978484 
vertex -0.6243195730135426 0.6243195730135425 -0.8829212074107313 
vertex 1.0744443529331349e-16 -1.204776599665439e-18 -1.1521554977801935 
endloop
endfacet
facet normal -0.3953118033953866 -0.000806247709373421 -0.9185466390232553 
outer loop
vertex -0.5656275797963262 -3.0119414991635977e-19 -0.9087282735978484 
vertex 1.0744443529331349e-16 -1.204776599665439e-18 -1.1521554977801935 
vertex -0.6243195730135427 -0.6243195730135426 -0.8829212074107315 
endloop
endfacet
facet normal -0.0010182858822954679 0.3934142709115789 -0.9193607423296759 
outer loop
vertex 8.23722600545862e-17 0.5656275797963259 -0.9087282735978484 
vertex -0.6243195730135426 0.6243195730135425 -0.8829212074107313 
vertex 1.4936691929608634e-16 1.013871173158219 -0.7169151817897371 
endloop
endfacet
facet normal 0.0010182858822953141 0.393414270911579 -0.9193607423296759 
outer loop
vertex 8.23722600545862e-17 0.5656275797963259 -0.9087282735978484 
vertex 1.4936691929608634e-16 1.013871173158219 -0.7169151817897371 
vertex 0.6243195730135427 0.6243195730135425 -0.8829212074107314 
endloop
endfacet
facet normal 0.0008062477093736019 0.3953118033953868 -0.9185466390232552 
outer loop
vertex 8.23722600545862e-17 0.5656275797963259 -0.9087282735978484 
vertex 0.6243195730135427 0.6243195730135425 -0.8829212074107314 
vertex 1.0744443529331349e-16 -1.204776599665439e-18 -1.1521554977801935 
endloop
endfacet
facet normal -0.0008062477093737822 0.39531180339538674 -0.9185466390232551 
outer loop
vertex 8.23722600545862e-17 0.5656275797963259 -0.9087282735978484 
vertex 1.0744443529331349e-16 -1.204776599665439e-18 -1.1521554977801935 
vertex -0.6243195730135426 0.6243195730135425 -0.8829212074107313 
endloop
endfacet
facet normal 0.39531180339538674 0.000806247709373638 -0.9185466390232552 
outer loop
vertex 0.5656275797963262 0.0 -0.9087282735978484 
vertex 1.0744443529331349e-16 -1.204776599665439e-18 -1.1521554977801935 
vertex 0.6243195730135427 0.6243195730135425 -0.8829212074107314 
endloop
endfacet
facet normal 0.3934142709115787 0.0010182858822953196 -0.919360742329676 
outer loop
vertex 0.5656275797963262 0.0 -0.9087282735978484 
vertex 0.6243195730135427 0.6243195730135425 -0.8829212074107314 
vertex 1.0138711731582195 1.308270621465842e-17 -0.7169151817897371 
endloop
endfacet
facet normal 0.3934142709115787 -0.0010182858822956329 -0.919360742329676 
outer loop
vertex 0.5656275797963262 0.0 -0.9087282735978484 
vertex 1.0138711731582195 1.308270621465842e-17 -0.7169151817897371 
vertex 0.6243195730135425 -0.6243195730135425 -0.8829212074107313 
endloop
endfacet
facet normal 0.3953118033953867 -0.0008062477093739086 -0.9185466390232552 
outer loop
vertex 0.5656275797963262 0.0 -0.9087282735978484 
vertex 0.6243195730135425 -0.6243195730135425 -0.8829212074107313 
vertex 1.0744443529331349e-16 -1.204776599665439e-18 -1.1521554977801935 
endloop
endfacet
facet normal 0.3953118033953864 0.0008062477093738096 0.9185466390232553 
outer loop
vertex 0.5656275797963262 -2.6373217845709895e-17 0.9087282735978486 
vertex 0.6243195730135427 0.6243195730135425 0.8829212074107315 
vertex 1.0617844533440057e-16 -1.6263032587282567e-19 1.1521554977801935 
endloop
endfacet
facet normal 0.3953118033953864 -0.0008062477093737823 0.9185466390232554 
outer loop
vertex 0.5656275797963262 -2.6373217845709895e-17 0.9087282735978486 
vertex 1.0617844533440057e-16 -1.6263032587282567e-19 1.1521554977801935 
vertex 0.6243195730135427 -0.6243195730135426 0.8829212074107315 
endloop
endfacet
facet normal 0.39341427091157904 -0.0010182858822954388 0.9193607423296758 
outer loop
vertex 0.5656275797963262 -2.6373217845709895e-17 0.9087282735978486 
vertex 0.6243195730135427 -0.6243195730135426 0.8829212074107315 
vertex 1.0138711731582195 5.5294310796760726e-18 0.7169151817897371 
endloop
endfacet
facet normal 0.3934142709115791 0.0010182858822954505 0.9193607423296758 
outer loop
vertex 0.5656275797963262 -2.6373217845709895e-17 0.9087282735978486 
vertex 1.0138711731582195 5.5294310796760726e-18 0.7169151817897371 
vertex 0.6243195730135427 0.6243195730135425 0.8829212074107315 
endloop
endfacet
facet normal -0.0010182858822951318 0.39341427091157893 0.9193607423296759 
outer loop
vertex 1.1102230246251565e-16 0.5656275797963259 0.9087282735978484 
vertex 1.411269827851965e-16 1.013871173158219 0.7169151817897371 
vertex -0.6243195730135425 0.6243195730135425 0.8829212074107315 
endloop
endfacet
facet normal -0.0008062477093734395 0.3953118033953868 0.9185466390232552 
outer loop
vertex 1.1102230246251565e-16 0.5656275797963259 0.9087282735978484 
vertex -0.6243195730135425 0.6243195730135425 0.8829212074107315 
vertex 1.0617844533440057e-16 -1.6263032587282567e-19 1.1521554977801935 
endloop
endfacet
facet normal 0.0008062477093734215 0.3953118033953868 0.9185466390232552 
outer loop
vertex 1.1102230246251565e-16 0.5656275797963259 0.9087282735978484 
vertex 1.0617844533440057e-16 -1.6263032587282567e-19 1.1521554977801935 
vertex 0.6243195730135427 0.6243195730135425 0.8829212074107315 
endloop
endfacet
facet normal 0.0010182858822951376 0.3934142709115789 0.9193607423296759 
outer loop
vertex 1.1102230246251565e-16 0.5656275797963259 0.9087282735978484 
vertex 0.6243195730135427 0.6243195730135425 0.8829212074107315 
vertex 1.411269827851965e-16 1.013871173158219 0.7169151817897371 
endloop
endfacet
facet normal -0.39531180339538646 -0.0008062477093736378 0.9185466390232554 
outer loop
vertex -0.5656275797963262 2.7023739149201198e-17 0.9087282735978485 
vertex -0.6243195730135427 -0.6243195730135425 0.8829212074107315 
vertex 1.0617844533440057e-16 -1.6263032587282567e-19 1.1521554977801935 
endloop
endfacet
facet normal -0.3953118033953864 0.0008062477093737822 0.9185466390232554 
outer loop
vertex -0.5656275797963262 2.7023739149201198e-17 0.9087282735978485 
vertex 1.0617844533440057e-16 -1.6263032587282567e-19 1.1521554977801935 
vertex -0.6243195730135425 0.6243195730135425 0.8829212074107315 
endloop
endfacet
facet normal -0.3934142709115793 0.0010182858822953991 0.9193607423296758 
outer loop
vertex -0.5656275797963262 2.7023739149201198e-17 0.9087282735978485 
vertex -0.6243195730135425 0.6243195730135425 0.8829212074107315 
vertex -1.0138711731582195 1.0809495659680479e-16 0.7169151817897369 
endloop
endfacet
facet normal -0.39341427091157927 -0.0010182858822952222 0.9193607423296757 
outer loop
vertex -0.5656275797963262 2.7023739149201198e-17 0.9087282735978485 
vertex -1.0138711731582195 1.0809495659680479e-16 0.7169151817897369 
vertex -0.6243195730135427 -0.6243195730135425 0.8829212074107315 
endloop
endfacet
facet normal 0.0010182858822952228 -0.3934142709115789 0.9193607423296759 
outer loop
vertex 2.7755575615628914e-17 -0.5656275797963262 0.9087282735978484 
vertex -1.9154238380577244e-17 -1.0138711731582193 0.7169151817897371 
vertex 0.6243195730135427 -0.6243195730135426 0.8829212074107315 
endloop
endfacet
facet normal 0.0008062477093735203 -0.39531180339538663 0.9185466390232553 
outer loop
vertex 2.7755575615628914e-17 -0.5656275797963262 0.9087282735978484 
vertex 0.6243195730135427 -0.6243195730135426 0.8829212074107315 
vertex 1.0617844533440057e-16 -1.6263032587282567e-19 1.1521554977801935 
endloop
endfacet
facet normal -0.0008062477093735654 -0.39531180339538663 0.9185466390232553 
outer loop
vertex 2.7755575615628914e-17 -0.5656275797963262 0.9087282735978484 
vertex 1.0617844533440057e-16 -1.6263032587282567e-19 1.1521554977801935 
vertex -0.6243195730135427 -0.6243195730135425 0.8829212074107315 
endloop
endfacet
facet normal -0.0010182858822952799 -0.3934142709115789 0.9193607423296759 
outer loop
vertex 2.7755575615628914e-17 -0.5656275797963262 0.9087282735978484 
vertex -0.6243195730135427 -0.6243195730135425 0.8829212074107315 
vertex -1.9154238380577244e-17 -1.0138711731582193 0.7169151817897371 
endloop
endfacet
facet normal -0.8475695828418358 -0.4514515317370753 -0.2789575536413466 
outer loop
vertex -0.925381714415146 -0.3597541346188199 -0.39995909730011714 
vertex -0.8146969654617371 -0.8146969654617372 -2.7755575615628914e-17 
vertex -1.248639146027085 1.249000902703301e-16 0.0 
endloop
endfacet
facet normal -0.8473024936549494 -0.4528699368610749 -0.277465861924581 
outer loop
vertex -0.925381714415146 -0.3597541346188199 -0.39995909730011714 
vertex -1.248639146027085 1.249000902703301e-16 0.0 
vertex -1.0138711731582195 1.0260166558954491e-16 -0.7169151817897371 
endloop
endfacet
facet normal -0.8462842077726539 -0.45388822274337026 -0.2789059356296963 
outer loop
vertex -0.925381714415146 -0.3597541346188199 -0.39995909730011714 
vertex -1.0138711731582195 1.0260166558954491e-16 -0.7169151817897371 
vertex -0.6243195730135427 -0.6243195730135426 -0.8829212074107315 
endloop
endfacet
facet normal -0.8467633351324623 -0.45225777944644896 -0.2800977600865752 
outer loop
vertex -0.925381714415146 -0.3597541346188199 -0.39995909730011714 
vertex -0.6243195730135427 -0.6243195730135426 -0.8829212074107315 
vertex -0.8146969654617371 -0.8146969654617372 -2.7755575615628914e-17 
endloop
endfacet
facet normal -0.45388822274337004 -0.8462842077726539 -0.2789059356296965 
outer loop
vertex -0.35975413461882 -0.925381714415146 -0.39995909730011714 
vertex -0.6243195730135427 -0.6243195730135426 -0.8829212074107315 
vertex -1.1040792123144054e-16 -1.0138711731582193 -0.7169151817897371 
endloop
endfacet
facet normal -0.45286993686107474 -0.8473024936549493 -0.27746586192458134 
outer loop
vertex -0.35975413461882 -0.925381714415146 -0.39995909730011714 
vertex -1.1040792123144054e-16 -1.0138711731582193 -0.7169151817897371 
vertex -9.71445146547012e-17 -1.248639146027085 -1.3877787807814457e-17 
endloop
endfacet
facet normal -0.45145153173707536 -0.8475695828418358 -0.27895755364134667 
outer loop
vertex -0.35975413461882 -0.925381714415146 -0.39995909730011714 
vertex -9.71445146547012e-17 -1.248639146027085 -1.3877787807814457e-17 
vertex -0.8146969654617371 -0.8146969654617372 -2.7755575615628914e-17 
endloop
endfacet
facet normal -0.45225777944644907 -0.846763335132462 -0.28009776008657533 
outer loop
vertex -0.35975413461882 -0.925381714415146 -0.39995909730011714 
vertex -0.8146969654617371 -0.8146969654617372 -2.7755575615628914e-17 
vertex -0.6243195730135427 -0.6243195730135426 -0.8829212074107315 
endloop
endfacet
facet normal -0.45286993686107463 -0.8473024936549493 0.2774658619245814 
outer loop
vertex -0.35975413461882 -0.925381714415146 0.39995909730011714 
vertex -9.71445146547012e-17 -1.248639146027085 -1.3877787807814457e-17 
vertex -1.9154238380577244e-17 -1.0138711731582193 0.7169151817897371 
endloop
endfacet
facet normal -0.45388822274337015 -0.8462842077726539 0.27890593562969673 
outer loop
vertex -0.35975413461882 -0.925381714415146 0.39995909730011714 
vertex -1.9154238380577244e-17 -1.0138711731582193 0.7169151817897371 
vertex -0.6243195730135427 -0.6243195730135425 0.8829212074107315 
endloop
endfacet
facet normal -0.4522577794464492 -0.846763335132462 0.2800977600865754 
outer loop
vertex -0.35975413461882 -0.925381714415146 0.39995909730011714 
vertex -0.6243195730135427 -0.6243195730135425 0.8829212074107315 
vertex -0.8146969654617371 -0.8146969654617372 -2.7755575615628914e-17 
endloop
endfacet
facet normal -0.45145153173707536 -0.8475695828418358 0.27895755364134667 
outer loop
vertex -0.35975413461882 -0.925381714415146 0.39995909730011714 
vertex -0.8146969654617371 -0.8146969654617372 -2.7755575615628914e-17 
vertex -9.71445146547012e-17 -1.248639146027085 -1.3877787807814457e-17 
endloop
endfacet
facet normal -0.8467633351324623 -0.452257779446449 0.2800977600865752 
outer loop
vertex -0.925381714415146 -0.35975413461881983 0.39995909730011714 
vertex -0.8146969654617371 -0.8146969654617372 -2.7755575615628914e-17 
vertex -0.6243195730135427 -0.6243195730135425 0.8829212074107315 
endloop
endfacet
facet normal -0.846284207772654 -0.4538882227433702 0.2789059356296963 
outer loop
vertex -0.925381714415146 -0.35975413461881983 0.39995909730011714 
vertex -0.6243195730135427 -0.6243195730135425 0.8829212074107315 
vertex -1.0138711731582195 1.0809495659680479e-16 0.7169151817897369 
endloop
endfacet
facet normal -0.8473024936549493 -0.4528699368610748 0.2774658619245811 
outer loop
vertex -0.925381714415146 -0.35975413461881983 0.39995909730011714 
vertex -1.0138711731582195 1.0809495659680479e-16 0.7169151817897369 
vertex -1.248639146027085 1.249000902703301e-16 0.0 
endloop
endfacet
facet normal -0.8475695828418358 -0.4514515317370753 0.2789575536413467 
outer loop
vertex -0.925381714415146 -0.35975413461881983 0.39995909730011714 
vertex -1.248639146027085 1.249000902703301e-16 0.0 
vertex -0.8146969654617371 -0.8146969654617372 -2.7755575615628914e-17 
endloop
endfacet
facet normal -0.45388822274337004 0.846284207772654 -0.2789059356296964 
outer loop
vertex -0.35975413461881983 0.9253817144151457 -0.39995909730011714 
vertex 1.4936691929608634e-16 1.013871173158219 -0.7169151817897371 
vertex -0.6243195730135426 0.6243195730135425 -0.8829212074107313 
endloop
endfacet
facet normal -0.4522577794464488 0.8467633351324623 -0.2800977600865752 
outer loop
vertex -0.35975413461881983 0.9253817144151457 -0.39995909730011714 
vertex -0.6243195730135426 0.6243195730135425 -0.8829212074107313 
vertex -0.814696965461737 0.814696965461737 0.0 
endloop
endfacet
facet normal -0.4514515317370753 0.8475695828418358 -0.2789575536413469 
outer loop
vertex -0.35975413461881983 0.9253817144151457 -0.39995909730011714 
vertex -0.814696965461737 0.814696965461737 0.0 
vertex 1.8041124150158794e-16 1.2486391460270847 0.0 
endloop
endfacet
facet normal -0.45286993686107485 0.8473024936549491 -0.2774658619245813 
outer loop
vertex -0.35975413461881983 0.9253817144151457 -0.39995909730011714 
vertex 1.8041124150158794e-16 1.2486391460270847 0.0 
vertex 1.4936691929608634e-16 1.013871173158219 -0.7169151817897371 
endloop
endfacet
facet normal -0.8475695828418357 0.4514515317370756 -0.2789575536413467 
outer loop
vertex -0.9253817144151459 0.3597541346188199 -0.39995909730011714 
vertex -1.248639146027085 1.249000902703301e-16 0.0 
vertex -0.814696965461737 0.814696965461737 0.0 
endloop
endfacet
facet normal -0.8467633351324619 0.45225777944644924 -0.2800977600865752 
outer loop
vertex -0.9253817144151459 0.3597541346188199 -0.39995909730011714 
vertex -0.814696965461737 0.814696965461737 0.0 
vertex -0.6243195730135426 0.6243195730135425 -0.8829212074107313 
endloop
endfacet
facet normal -0.8462842077726538 0.45388822274337076 -0.27890593562969623 
outer loop
vertex -0.9253817144151459 0.3597541346188199 -0.39995909730011714 
vertex -0.6243195730135426 0.6243195730135425 -0.8829212074107313 
vertex -1.0138711731582195 1.0260166558954491e-16 -0.7169151817897371 
endloop
endfacet
facet normal -0.847302493654949 0.45286993686107524 -0.277465861924581 
outer loop
vertex -0.9253817144151459 0.3597541346188199 -0.39995909730011714 
vertex -1.0138711731582195 1.0260166558954491e-16 -0.7169151817897371 
vertex -1.248639146027085 1.249000902703301e-16 0.0 
endloop
endfacet
facet normal -0.8462842077726536 0.4538882227433705 0.2789059356296963 
outer loop
vertex -0.9253817144151459 0.35975413461881994 0.39995909730011714 
vertex -1.0138711731582195 1.0809495659680479e-16 0.7169151817897369 
vertex -0.6243195730135425 0.6243195730135425 0.8829212074107315 
endloop
endfacet
facet normal -0.846763335132462 0.4522577794464493 0.2800977600865753 
outer loop
vertex -0.9253817144151459 0.35975413461881994 0.39995909730011714 
vertex -0.6243195730135425 0.6243195730135425 0.8829212074107315 
vertex -0.814696965461737 0.814696965461737 0.0 
endloop
endfacet
facet normal -0.8475695828418357 0.4514515317370756 0.2789575536413467 
outer loop
vertex -0.9253817144151459 0.35975413461881994 0.39995909730011714 
vertex -0.814696965461737 0.814696965461737 0.0 
vertex -1.248639146027085 1.249000902703301e-16 0.0 
endloop
endfacet
facet normal -0.8473024936549493 0.45286993686107524 0.27746586192458117 
outer loop
vertex -0.9253817144151459 0.35975413461881994 0.39995909730011714 
vertex -1.248639146027085 1.249000902703301e-16 0.0 
vertex -1.0138711731582195 1.0809495659680479e-16 0.7169151817897369 
endloop
endfacet
facet normal -0.4514515317370753 0.8475695828418358 0.2789575536413466 
outer loop
vertex -0.3597541346188197 0.9253817144151459 0.39995909730011714 
vertex 1.8041124150158794e-16 1.2486391460270847 0.0 
vertex -0.814696965461737 0.814696965461737 0.0 
endloop
endfacet
facet normal -0.4522577794464491 0.846763335132462 0.2800977600865753 
outer loop
vertex -0.3597541346188197 0.9253817144151459 0.39995909730011714 
vertex -0.814696965461737 0.814696965461737 0.0 
vertex -0.6243195730135425 0.6243195730135425 0.8829212074107315 
endloop
endfacet
facet normal -0.45388822274337004 0.846284207772654 0.2789059356296967 
outer loop
vertex -0.3597541346188197 0.9253817144151459 0.39995909730011714 
vertex -0.6243195730135425 0.6243195730135425 0.8829212074107315 
vertex 1.411269827851965e-16 1.013871173158219 0.7169151817897371 
endloop
endfacet
facet normal -0.4528699368610745 0.8473024936549493 0.27746586192458134 
outer loop
vertex -0.3597541346188197 0.9253817144151459 0.39995909730011714 
vertex 1.411269827851965e-16 1.013871173158219 0.7169151817897371 
vertex 1.8041124150158794e-16 1.2486391460270847 0.0 
endloop
endfacet
facet normal 0.8467633351324619 0.4522577794464493 -0.2800977600865753 
outer loop
vertex 0.9253817144151462 0.3597541346188199 -0.39995909730011714 
vertex 0.6243195730135427 0.6243195730135425 -0.8829212074107314 
vertex 0.8146969654617371 0.8146969654617372 0.0 
endloop
endfacet
facet normal 0.8475695828418356 0.45145153173707575 -0.278957553641347 
outer loop
vertex 0.9253817144151462 0.3597541346188199 -0.39995909730011714 
vertex 0.8146969654617371 0.8146969654617372 0.0 
vertex 1.2486391460270854 2.7755575615628914e-17 -1.3877787807814457e-17 
endloop
endfacet
facet normal 0.8473024936549489 0.4528699368610751 -0.27746586192458156 
outer loop
vertex 0.9253817144151462 0.3597541346188199 -0.39995909730011714 
vertex 1.2486391460270854 2.7755575615628914e-17 -1.3877787807814457e-17 
vertex 1.0138711731582195 1.308270621465842e-17 -0.7169151817897371 
endloop
endfacet
facet normal 0.8462842077726538 0.4538882227433703 -0.2789059356296965 
outer loop
vertex 0.9253817144151462 0.3597541346188199 -0.39995909730011714 
vertex 1.0138711731582195 1.308270621465842e-17 -0.7169151817897371 
vertex 0.6243195730135427 0.6243195730135425 -0.8829212074107314 
endloop
endfacet
facet normal 0.45388822274337004 0.8462842077726538 -0.27890593562969646 
outer loop
vertex 0.35975413461882 0.9253817144151458 -0.39995909730011714 
vertex 0.6243195730135427 0.6243195730135425 -0.8829212074107314 
vertex 1.4936691929608634e-16 1.013871173158219 -0.7169151817897371 
endloop
endfacet
facet normal 0.45286993686107474 0.8473024936549493 -0.27746586192458134 
outer loop
vertex 0.35975413461882 0.9253817144151458 -0.39995909730011714 
vertex 1.4936691929608634e-16 1.013871173158219 -0.7169151817897371 
vertex 1.8041124150158794e-16 1.2486391460270847 0.0 
endloop
endfacet
facet normal 0.4514515317370752 0.8475695828418359 -0.278957553641347 
outer loop
vertex 0.35975413461882 0.9253817144151458 -0.39995909730011714 
vertex 1.8041124150158794e-16 1.2486391460270847 0.0 
vertex 0.8146969654617371 0.8146969654617372 0.0 
endloop
endfacet
facet normal 0.45225777944644885 0.8467633351324622 -0.2800977600865754 
outer loop
vertex 0.35975413461882 0.9253817144151458 -0.39995909730011714 
vertex 0.8146969654617371 0.8146969654617372 0.0 
vertex 0.6243195730135427 0.6243195730135425 -0.8829212074107314 
endloop
endfacet
facet normal 0.45286993686107474 0.8473024936549493 0.27746586192458134 
outer loop
vertex 0.35975413461882 0.9253817144151458 0.39995909730011714 
vertex 1.8041124150158794e-16 1.2486391460270847 0.0 
vertex 1.411269827851965e-16 1.013871173158219 0.7169151817897371 
endloop
endfacet
facet normal 0.45388822274337015 0.846284207772654 0.2789059356296964 
outer loop
vertex 0.35975413461882 0.9253817144151458 0.39995909730011714 
vertex 1.411269827851965e-16 1.013871173158219 0.7169151817897371 
vertex 0.6243195730135427 0.6243195730135425 0.8829212074107315 
endloop
endfacet
facet normal 0.45225777944644874 0.8467633351324623 0.2800977600865754 
outer loop
vertex 0.35975413461882 0.9253817144151458 0.39995909730011714 
vertex 0.6243195730135427 0.6243195730135425 0.8829212074107315 
vertex 0.8146969654617371 0.8146969654617372 0.0 
endloop
endfacet
facet normal 0.4514515317370752 0.8475695828418359 0.278957553641347 
outer loop
vertex 0.35975413461882 0.9253817144151458 0.39995909730011714 
vertex 0.8146969654617371 0.8146969654617372 0.0 
vertex 1.8041124150158794e-16 1.2486391460270847 0.0 
endloop
endfacet
facet normal 0.846763335132462 0.45225777944644924 0.2800977600865753 
outer loop
vertex 0.9253817144151462 0.3597541346188199 0.39995909730011714 
vertex 0.8146969654617371 0.8146969654617372 0.0 
vertex 0.6243195730135427 0.6243195730135425 0.8829212074107315 
endloop
endfacet
facet normal 0.8462842077726538 0.4538882227433703 0.2789059356296965 
outer loop
vertex 0.9253817144151462 0.3597541346188199 0.39995909730011714 
vertex 0.6243195730135427 0.6243195730135425 0.8829212074107315 
vertex 1.0138711731582195 5.5294310796760726e-18 0.7169151817897371 
endloop
endfacet
facet normal 0.8473024936549489 0.4528699368610751 0.27746586192458156 
outer loop
vertex 0.9253817144151462 0.3597541346188199 0.39995909730011714 
vertex 1.0138711731582195 5.5294310796760726e-18 0.7169151817897371 
vertex 1.2486391460270854 2.7755575615628914e-17 -1.3877787807814457e-17 
endloop
endfacet
facet normal 0.8475695828418356 0.45145153173707575 0.278957553641347 
outer loop
vertex 0.9253817144151462 0.3597541346188199 0.39995909730011714 
vertex 1.2486391460270854 2.7755575615628914e-17 -1.3877787807814457e-17 
vertex 0.8146969654617371 0.8146969654617372 0.0 
endloop
endfacet
facet normal 0.45225777944644924 -0.8467633351324619 -0.28009776008657544 
outer loop
vertex 0.3597541346188199 -0.9253817144151459 -0.39995909730011714 
vertex 0.6243195730135425 -0.6243195730135425 -0.8829212074107313 
vertex 0.814696965461737 -0.8146969654617371 2.7755575615628914e-17 
endloop
endfacet
facet normal 0.4514515317370754 -0.8475695828418358 -0.2789575536413468 
outer loop
vertex 0.3597541346188199 -0.9253817144151459 -0.39995909730011714 
vertex 0.814696965461737 -0.8146969654617371 2.7755575615628914e-17 
vertex -9.71445146547012e-17 -1.248639146027085 -1.3877787807814457e-17 
endloop
endfacet
facet normal 0.45286993686107485 -0.8473024936549491 -0.2774658619245813 
outer loop
vertex 0.3597541346188199 -0.9253817144151459 -0.39995909730011714 
vertex -9.71445146547012e-17 -1.248639146027085 -1.3877787807814457e-17 
vertex -1.1040792123144054e-16 -1.0138711731582193 -0.7169151817897371 
endloop
endfacet
facet normal 0.4538882227433703 -0.8462842077726538 -0.2789059356296967 
outer loop
vertex 0.3597541346188199 -0.9253817144151459 -0.39995909730011714 
vertex -1.1040792123144054e-16 -1.0138711731582193 -0.7169151817897371 
vertex 0.6243195730135425 -0.6243195730135425 -0.8829212074107313 
endloop
endfacet
facet normal 0.8475695828418355 -0.4514515317370758 -0.27895755364134717 
outer loop
vertex 0.9253817144151459 -0.3597541346188199 -0.39995909730011714 
vertex 1.2486391460270854 2.7755575615628914e-17 -1.3877787807814457e-17 
vertex 0.814696965461737 -0.8146969654617371 2.7755575615628914e-17 
endloop
endfacet
facet normal 0.846763335132462 -0.4522577794464493 -0.2800977600865754 
outer loop
vertex 0.9253817144151459 -0.3597541346188199 -0.39995909730011714 
vertex 0.814696965461737 -0.8146969654617371 2.7755575615628914e-17 
vertex 0.6243195730135425 -0.6243195730135425 -0.8829212074107313 
endloop
endfacet
facet normal 0.8462842077726536 -0.4538882227433707 -0.2789059356296964 
outer loop
vertex 0.9253817144151459 -0.3597541346188199 -0.39995909730011714 
vertex 0.6243195730135425 -0.6243195730135425 -0.8829212074107313 
vertex 1.0138711731582195 1.308270621465842e-17 -0.7169151817897371 
endloop
endfacet
facet normal 0.8473024936549488 -0.4528699368610756 -0.2774658619245815 
outer loop
vertex 0.9253817144151459 -0.3597541346188199 -0.39995909730011714 
vertex 1.0138711731582195 1.308270621465842e-17 -0.7169151817897371 
vertex 1.2486391460270854 2.7755575615628914e-17 -1.3877787807814457e-17 
endloop
endfacet
facet normal 0.8462842077726538 -0.4538882227433703 0.27890593562969646 
outer loop
vertex 0.9253817144151462 -0.3597541346188199 0.39995909730011714 
vertex 1.0138711731582195 5.5294310796760726e-18 0.7169151817897371 
vertex 0.6243195730135427 -0.6243195730135426 0.8829212074107315 
endloop
endfacet
facet normal 0.846763335132462 -0.4522577794464494 0.28009776008657505 
outer loop
vertex 0.9253817144151462 -0.3597541346188199 0.39995909730011714 
vertex 0.6243195730135427 -0.6243195730135426 0.8829212074107315 
vertex 0.814696965461737 -0.8146969654617371 2.7755575615628914e-17 
endloop
endfacet
facet normal 0.8475695828418356 -0.45145153173707586 0.27895755364134683 
outer loop
vertex 0.9253817144151462 -0.3597541346188199 0.39995909730011714 
vertex 0.814696965461737 -0.8146969654617371 2.7755575615628914e-17 
vertex 1.2486391460270854 2.7755575615628914e-17 -1.3877787807814457e-17 
endloop
endfacet
facet normal 0.8473024936549489 -0.4528699368610751 0.2774658619245815 
outer loop
vertex 0.9253817144151462 -0.3597541346188199 0.39995909730011714 
vertex 1.2486391460270854 2.7755575615628914e-17 -1.3877787807814457e-17 
vertex 1.0138711731582195 5.5294310796760726e-18 0.7169151817897371 
endloop
endfacet
facet normal 0.45145153173707553 -0.8475695828418359 0.2789575536413466 
outer loop
vertex 0.3597541346188199 -0.925381714415146 0.39995909730011714 
vertex -9.71445146547012e-17 -1.248639146027085 -1.3877787807814457e-17 
vertex 0.814696965461737 -0.8146969654617371 2.7755575615628914e-17 
endloop
endfacet
facet normal 0.4522577794464492 -0.846763335132462 0.28009776008657516 
outer loop
vertex 0.3597541346188199 -0.925381714415146 0.39995909730011714 
vertex 0.814696965461737 -0.8146969654617371 2.7755575615628914e-17 
vertex 0.6243195730135427 -0.6243195730135426 0.8829212074107315 
endloop
endfacet
facet normal 0.45388822274337004 -0.8462842077726539 0.27890593562969646 
outer loop
vertex 0.3597541346188199 -0.925381714415146 0.39995909730011714 
vertex 0.6243195730135427 -0.6243195730135426 0.8829212074107315 
vertex -1.9154238380577244e-17 -1.0138711731582193 0.7169151817897371 
endloop
endfacet
facet normal 0.45286993686107474 -0.8473024936549493 0.27746586192458134 
outer loop
vertex 0.3597541346188199 -0.925381714415146 0.39995909730011714 
vertex -1.9154238380577244e-17 -1.0138711731582193 0.7169151817897371 
vertex -9.71445146547012e-17 -1.248639146027085 -1.3877787807814457e-17 
endloop
endfacet
endsolid smooth-test
