solid smooth-test
facet normal 0.0032411761618750218 -0.39877413738641415 -0.9170434461511673 
outer loop
vertex -2.7755575615628914e-17 -0.565444128050431 -0.9089107533906627 
vertex 1.0408340855860843e-16 -2.3207778542672207e-18 -1.1547927727757665 
vertex 0.6233377722678236 -0.6233377722678235 -0.8815327314805876 
endloop
endfacet
facet normal 0.004090289171790748 -0.3911751921571208 -0.9203071436076821 
outer loop
vertex -2.7755575615628914e-17 -0.565444128050431 -0.9089107533906627 
vertex 0.6233377722678236 -0.6233377722678235 -0.8815327314805876 
vertex -1.0899845840720938e-16 -1.015100967666077 -0.7177847778257093 
endloop
endfacet
facet normal -0.0040902891717905475 -0.3911751921571208 -0.9203071436076821 
outer loop
vertex -2.7755575615628914e-17 -0.565444128050431 -0.9089107533906627 
vertex -1.0899845840720938e-16 -1.015100967666077 -0.7177847778257093 
vertex -0.6233377722678237 -0.6233377722678236 -0.8815327314805878 
endloop
endfacet
facet normal -0.0032411761618748227 -0.39877413738641415 -0.9170434461511673 
outer loop
vertex -2.7755575615628914e-17 -0.565444128050431 -0.9089107533906627 
vertex -0.6233377722678237 -0.6233377722678236 -0.8815327314805878 
vertex 1.0408340855860843e-16 -2.3207778542672207e-18 -1.1547927727757665 
endloop
endfacet
facet normal -0.391175192157121 -0.004090289171790667 -0.9203071436076821 
outer loop
vertex -0.5654441280504311 -5.801944635668052e-19 -0.9089107533906629 
vertex -0.6233377722678237 -0.6233377722678236 -0.8815327314805878 
vertex -1.0151009676660772 8.601337235051669e-17 -0.7177847778257093 
endloop
endfacet
facet normal -0.3911751921571209 0.004090289171790912 -0.9203071436076821 
outer loop
vertex -0.5654441280504311 -5.801944635668052e-19 -0.9089107533906629 
vertex -1.0151009676660772 8.601337235051669e-17 -0.7177847778257093 
vertex -0.6233377722678236 0.6233377722678235 -0.8815327314805876 
endloop
endfacet
facet normal -0.3987741373864138 0.0032411761618752477 -0.9170434461511675 
outer loop
vertex -0.5654441280504311 -5.801944635668052e-19 -0.9089107533906629 
vertex -0.6233377722678236 0.6233377722678235 -0.8815327314805876 
vertex 1.0408340855860843e-16 -2.3207778542672207e-18 -1.1547927727757665 
endloop
endfacet
facet normal -0.3987741373864139 -0.0032411761618750213 -0.9170434461511675 
outer loop
vertex -0.5654441280504311 -5.801944635668052e-19 -0.9089107533906629 
vertex 1.0408340855860843e-16 -2.3207778542672207e-18 -1.1547927727757665 
vertex -0.6233377722678237 -0.6233377722678236 -0.8815327314805878 
endloop
endfacet
facet normal -0.004090289171790731 0.391175192157121 -0.9203071436076821 
outer loop
vertex 1.0928757898653885e-16 0.565444128050431 -0.9089107533906627 
vertex -0.6233377722678236 0.6233377722678235 -0.8815327314805876 
vertex 1.7058114180438602e-16 1.0151009676660767 -0.7177847778257093 
endloop
endfacet
facet normal 0.004090289171790733 0.39117519215712104 -0.920307143607682 
outer loop
vertex 1.0928757898653885e-16 0.565444128050431 -0.9089107533906627 
vertex 1.7058114180438602e-16 1.0151009676660767 -0.7177847778257093 
vertex 0.6233377722678237 0.6233377722678235 -0.8815327314805876 
endloop
endfacet
facet normal 0.0032411761618750578 0.39877413738641404 -0.9170434461511673 
outer loop
vertex 1.0928757898653885e-16 0.565444128050431 -0.9089107533906627 
vertex 0.6233377722678237 0.6233377722678235 -0.8815327314805876 
vertex 1.0408340855860843e-16 -2.3207778542672207e-18 -1.1547927727757665 
endloop
endfacet
facet normal -0.0032411761618750213 0.39877413738641415 -0.9170434461511673 
outer loop
vertex 1.0928757898653885e-16 0.565444128050431 -0.9089107533906627 
vertex 1.0408340855860843e-16 -2.3207778542672207e-18 -1.1547927727757665 
vertex -0.6233377722678236 0.6233377722678235 -0.8815327314805876 
endloop
endfacet
facet normal 0.39877413738641404 0.003241176161875094 -0.9170434461511673 
outer loop
vertex 0.5654441280504312 0.0 -0.9089107533906627 
vertex 1.0408340855860843e-16 -2.3207778542672207e-18 -1.1547927727757665 
vertex 0.6233377722678237 0.6233377722678235 -0.8815327314805876 
endloop
endfacet
facet normal 0.3911751921571209 0.004090289171790749 -0.9203071436076821 
outer loop
vertex 0.5654441280504312 0.0 -0.9089107533906627 
vertex 0.6233377722678237 0.6233377722678235 -0.8815327314805876 
vertex 1.0151009676660772 -1.6335312732114932e-17 -0.7177847778257093 
endloop
endfacet
facet normal 0.3911751921571209 -0.0040902891717908224 -0.9203071436076821 
outer loop
vertex 0.5654441280504312 0.0 -0.9089107533906627 
vertex 1.0151009676660772 -1.6335312732114932e-17 -0.7177847778257093 
vertex 0.6233377722678236 -0.6233377722678235 -0.8815327314805876 
endloop
endfacet
facet normal 0.39877413738641404 -0.0032411761618751393 -0.9170434461511673 
outer loop
vertex 0.5654441280504312 0.0 -0.9089107533906627 
vertex 0.6233377722678236 -0.6233377722678235 -0.8815327314805876 
vertex 1.0408340855860843e-16 -2.3207778542672207e-18 -1.1547927727757665 
endloop
endfacet
facet normal 0.39877413738641404 0.0032411761618749047 0.9170434461511673 
outer loop
vertex 0.5654441280504312 -2.3599467287767812e-17 0.9089107533906627 
vertex 0.6233377722678237 0.6233377722678235 0.8815327314805878 
vertex 1.0128491861837468e-16 -2.168404344971009e-19 1.1547927727757665 
endloop
endfacet
facet normal 0.39877413738641415 -0.0032411761618748773 0.9170434461511675 
outer loop
vertex 0.5654441280504312 -2.3599467287767812e-17 0.9089107533906627 
vertex 1.0128491861837468e-16 -2.168404344971009e-19 1.1547927727757665 
vertex 0.6233377722678237 -0.6233377722678236 0.8815327314805878 
endloop
endfacet
facet normal 0.3911751921571208 -0.004090289171790582 0.9203071436076821 
outer loop
vertex 0.5654441280504312 -2.3599467287767812e-17 0.9089107533906627 
vertex 0.6233377722678237 -0.6233377722678236 0.8815327314805878 
vertex 1.0151009676660772 1.6624433311444402e-17 0.7177847778257093 
endloop
endfacet
facet normal 0.3911751921571209 0.004090289171790594 0.9203071436076821 
outer loop
vertex 0.5654441280504312 -2.3599467287767812e-17 0.9089107533906627 
vertex 1.0151009676660772 1.6624433311444402e-17 0.7177847778257093 
vertex 0.6233377722678237 0.6233377722678235 0.8815327314805878 
endloop
endfacet
facet normal -0.004090289171790504 0.391175192157121 0.920307143607682 
outer loop
vertex 1.1102230246251565e-16 0.565444128050431 0.9089107533906627 
vertex 1.4586133227171652e-16 1.0151009676660767 0.7177847778257093 
vertex -0.6233377722678235 0.6233377722678236 0.8815327314805878 
endloop
endfacet
facet normal -0.003241176161874823 0.39877413738641415 0.9170434461511673 
outer loop
vertex 1.1102230246251565e-16 0.565444128050431 0.9089107533906627 
vertex -0.6233377722678235 0.6233377722678236 0.8815327314805878 
vertex 1.0128491861837468e-16 -2.168404344971009e-19 1.1547927727757665 
endloop
endfacet
facet normal 0.0032411761618748773 0.39877413738641415 0.9170434461511673 
outer loop
vertex 1.1102230246251565e-16 0.565444128050431 0.9089107533906627 
vertex 1.0128491861837468e-16 -2.168404344971009e-19 1.1547927727757665 
vertex 0.6233377722678237 0.6233377722678235 0.8815327314805878 
endloop
endfacet
facet normal 0.0040902891717905674 0.39117519215712104 0.920307143607682 
outer loop
vertex 1.1102230246251565e-16 0.565444128050431 0.9089107533906627 
vertex 0.6233377722678237 0.6233377722678235 0.8815327314805878 
vertex 1.4586133227171652e-16 1.0151009676660767 0.7177847778257093 
endloop
endfacet
facet normal -0.39877413738641404 -0.0032411761618747603 0.9170434461511673 
outer loop
vertex -0.565444128050431 5.334274688628682e-17 0.9089107533906627 
vertex -0.6233377722678237 -0.6233377722678235 0.8815327314805878 
vertex 1.0128491861837468e-16 -2.168404344971009e-19 1.1547927727757665 
endloop
endfacet
facet normal -0.39877413738641404 0.0032411761618748773 0.9170434461511673 
outer loop
vertex -0.565444128050431 5.334274688628682e-17 0.9089107533906627 
vertex 1.0128491861837468e-16 -2.168404344971009e-19 1.1547927727757665 
vertex -0.6233377722678235 0.6233377722678236 0.8815327314805878 
endloop
endfacet
facet normal -0.3911751921571207 0.004090289171790604 0.9203071436076821 
outer loop
vertex -0.565444128050431 5.334274688628682e-17 0.9089107533906627 
vertex -0.6233377722678235 0.6233377722678236 0.8815327314805878 
vertex -1.0151009676660772 1.0234868508263162e-16 0.7177847778257093 
endloop
endfacet
facet normal -0.39117519215712065 -0.0040902891717904555 0.9203071436076823 
outer loop
vertex -0.565444128050431 5.334274688628682e-17 0.9089107533906627 
vertex -1.0151009676660772 1.0234868508263162e-16 0.7177847778257093 
vertex -0.6233377722678237 -0.6233377722678235 0.8815327314805878 
endloop
endfacet
facet normal 0.004090289171790547 -0.39117519215712077 0.9203071436076821 
outer loop
vertex 0.0 -0.565444128050431 0.9089107533906627 
vertex -5.75349952865641e-17 -1.015100967666077 0.7177847778257093 
vertex 0.6233377722678237 -0.6233377722678236 0.8815327314805878 
endloop
endfacet
facet normal 0.0032411761618748227 -0.39877413738641415 0.9170434461511673 
outer loop
vertex 0.0 -0.565444128050431 0.9089107533906627 
vertex 0.6233377722678237 -0.6233377722678236 0.8815327314805878 
vertex 1.0128491861837468e-16 -2.168404344971009e-19 1.1547927727757665 
endloop
endfacet
facet normal -0.003241176161874877 -0.39877413738641415 0.9170434461511673 
outer loop
vertex 0.0 -0.565444128050431 0.9089107533906627 
vertex 1.0128491861837468e-16 -2.168404344971009e-19 1.1547927727757665 
vertex -0.6233377722678237 -0.6233377722678235 0.8815327314805878 
endloop
endfacet
facet normal -0.004090289171790581 -0.3911751921571208 0.9203071436076821 
outer loop
vertex 0.0 -0.565444128050431 0.9089107533906627 
vertex -0.6233377722678237 -0.6233377722678235 0.8815327314805878 
vertex -5.75349952865641e-17 -1.015100967666077 0.7177847778257093 
endloop
endfacet
facet normal -0.8494552961903157 -0.4474399826420265 -0.2796840390646667 
outer loop
vertex -0.9254190212411272 -0.359974893190696 -0.39982937732657425 
vertex -0.8165618004949604 -0.8165618004949604 -1.3877787807814457e-17 
vertex -1.246675544535647 1.3877787807814457e-16 0.0 
endloop
endfacet
facet normal -0.8483881626838697 -0.4531226813549577 -0.2737103597958636 
outer loop
vertex -0.9254190212411272 -0.359974893190696 -0.39982937732657425 
vertex -1.246675544535647 1.3877787807814457e-16 0.0 
vertex -1.0151009676660772 8.601337235051669e-17 -0.7177847778257093 
endloop
endfacet
facet normal -0.844297873512079 -0.4572129705267486 -0.27949490221663803 
outer loop
vertex -0.9254190212411272 -0.359974893190696 -0.39982937732657425 
vertex -1.0151009676660772 8.601337235051669e-17 -0.7177847778257093 
vertex -0.6233377722678237 -0.6233377722678236 -0.8815327314805878 
endloop
endfacet
facet normal -0.8462141200284404 -0.45068115880390175 -0.28426775435083107 
outer loop
vertex -0.9254190212411272 -0.359974893190696 -0.39982937732657425 
vertex -0.6233377722678237 -0.6233377722678236 -0.8815327314805878 
vertex -0.8165618004949604 -0.8165618004949604 -1.3877787807814457e-17 
endloop
endfacet
facet normal -0.4572129705267485 -0.8442978735120791 -0.2794949022166382 
outer loop
vertex -0.3599748931906961 -0.9254190212411271 -0.39982937732657425 
vertex -0.6233377722678237 -0.6233377722678236 -0.8815327314805878 
vertex -1.0899845840720938e-16 -1.015100967666077 -0.7177847778257093 
endloop
endfacet
facet normal -0.45312268135495776 -0.8483881626838697 -0.27371035979586383 
outer loop
vertex -0.3599748931906961 -0.9254190212411271 -0.39982937732657425 
vertex -1.0899845840720938e-16 -1.015100967666077 -0.7177847778257093 
vertex -9.71445146547012e-17 -1.246675544535647 0.0 
endloop
endfacet
facet normal -0.4474399826420266 -0.8494552961903157 -0.27968403906466693 
outer loop
vertex -0.3599748931906961 -0.9254190212411271 -0.39982937732657425 
vertex -9.71445146547012e-17 -1.246675544535647 0.0 
vertex -0.8165618004949604 -0.8165618004949604 -1.3877787807814457e-17 
endloop
endfacet
facet normal -0.4506811588039017 -0.8462141200284405 -0.2842677543508311 
outer loop
vertex -0.3599748931906961 -0.9254190212411271 -0.39982937732657425 
vertex -0.8165618004949604 -0.8165618004949604 -1.3877787807814457e-17 
vertex -0.6233377722678237 -0.6233377722678236 -0.8815327314805878 
endloop
endfacet
facet normal -0.45312268135495815 -0.8483881626838696 0.27371035979586383 
outer loop
vertex -0.3599748931906961 -0.9254190212411268 0.39982937732657425 
vertex -9.71445146547012e-17 -1.246675544535647 0.0 
vertex -5.75349952865641e-17 -1.015100967666077 0.7177847778257093 
endloop
endfacet
facet normal -0.45721297052674875 -0.8442978735120791 0.27949490221663786 
outer loop
vertex -0.3599748931906961 -0.9254190212411268 0.39982937732657425 
vertex -5.75349952865641e-17 -1.015100967666077 0.7177847778257093 
vertex -0.6233377722678237 -0.6233377722678235 0.8815327314805878 
endloop
endfacet
facet normal -0.45068115880390136 -0.8462141200284407 0.2842677543508312 
outer loop
vertex -0.3599748931906961 -0.9254190212411268 0.39982937732657425 
vertex -0.6233377722678237 -0.6233377722678235 0.8815327314805878 
vertex -0.8165618004949604 -0.8165618004949604 -1.3877787807814457e-17 
endloop
endfacet
facet normal -0.44743998264202656 -0.8494552961903156 0.2796840390646675 
outer loop
vertex -0.3599748931906961 -0.9254190212411268 0.39982937732657425 
vertex -0.8165618004949604 -0.8165618004949604 -1.3877787807814457e-17 
vertex -9.71445146547012e-17 -1.246675544535647 0.0 
endloop
endfacet
facet normal -0.8462141200284407 -0.4506811588039015 0.2842677543508311 
outer loop
vertex -0.9254190212411271 -0.3599748931906959 0.39982937732657425 
vertex -0.8165618004949604 -0.8165618004949604 -1.3877787807814457e-17 
vertex -0.6233377722678237 -0.6233377722678235 0.8815327314805878 
endloop
endfacet
facet normal -0.844297873512079 -0.45721297052674864 0.2794949022166378 
outer loop
vertex -0.9254190212411271 -0.3599748931906959 0.39982937732657425 
vertex -0.6233377722678237 -0.6233377722678235 0.8815327314805878 
vertex -1.0151009676660772 1.0234868508263162e-16 0.7177847778257093 
endloop
endfacet
facet normal -0.8483881626838696 -0.453122681354958 0.2737103597958636 
outer loop
vertex -0.9254190212411271 -0.3599748931906959 0.39982937732657425 
vertex -1.0151009676660772 1.0234868508263162e-16 0.7177847778257093 
vertex -1.246675544535647 1.3877787807814457e-16 0.0 
endloop
endfacet
facet normal -0.8494552961903157 -0.4474399826420265 0.27968403906466704 
outer loop
vertex -0.9254190212411271 -0.3599748931906959 0.39982937732657425 
vertex -1.246675544535647 1.3877787807814457e-16 0.0 
vertex -0.8165618004949604 -0.8165618004949604 -1.3877787807814457e-17 
endloop
endfacet
facet normal -0.45721297052674836 0.8442978735120791 -0.27949490221663786 
outer loop
vertex -0.3599748931906958 0.9254190212411268 -0.3998293773265742 
vertex 1.7058114180438602e-16 1.0151009676660767 -0.7177847778257093 
vertex -0.6233377722678236 0.6233377722678235 -0.8815327314805876 
endloop
endfacet
facet normal -0.4506811588039015 0.8462141200284407 -0.28426775435083096 
outer loop
vertex -0.3599748931906958 0.9254190212411268 -0.3998293773265742 
vertex -0.6233377722678236 0.6233377722678235 -0.8815327314805876 
vertex -0.8165618004949602 0.8165618004949602 1.3877787807814457e-17 
endloop
endfacet
facet normal -0.4474399826420267 0.8494552961903156 -0.27968403906466727 
outer loop
vertex -0.3599748931906958 0.9254190212411268 -0.3998293773265742 
vertex -0.8165618004949602 0.8165618004949602 1.3877787807814457e-17 
vertex 1.8041124150158794e-16 1.246675544535647 1.3877787807814457e-17 
endloop
endfacet
facet normal -0.453122681354958 0.8483881626838696 -0.27371035979586406 
outer loop
vertex -0.3599748931906958 0.9254190212411268 -0.3998293773265742 
vertex 1.8041124150158794e-16 1.246675544535647 1.3877787807814457e-17 
vertex 1.7058114180438602e-16 1.0151009676660767 -0.7177847778257093 
endloop
endfacet
facet normal -0.8494552961903155 0.44743998264202683 -0.27968403906466677 
outer loop
vertex -0.9254190212411271 0.359974893190696 -0.3998293773265742 
vertex -1.246675544535647 1.3877787807814457e-16 0.0 
vertex -0.8165618004949602 0.8165618004949602 1.3877787807814457e-17 
endloop
endfacet
facet normal -0.8462141200284403 0.450681158803902 -0.284267754350831 
outer loop
vertex -0.9254190212411271 0.359974893190696 -0.3998293773265742 
vertex -0.8165618004949602 0.8165618004949602 1.3877787807814457e-17 
vertex -0.6233377722678236 0.6233377722678235 -0.8815327314805876 
endloop
endfacet
facet normal -0.8442978735120787 0.4572129705267489 -0.27949490221663786 
outer loop
vertex -0.9254190212411271 0.359974893190696 -0.3998293773265742 
vertex -0.6233377722678236 0.6233377722678235 -0.8815327314805876 
vertex -1.0151009676660772 8.601337235051669e-17 -0.7177847778257093 
endloop
endfacet
facet normal -0.8483881626838695 0.4531226813549582 -0.27371035979586356 
outer loop
vertex -0.9254190212411271 0.359974893190696 -0.3998293773265742 
vertex -1.0151009676660772 8.601337235051669e-17 -0.7177847778257093 
vertex -1.246675544535647 1.3877787807814457e-16 0.0 
endloop
endfacet
facet normal -0.8442978735120787 0.45721297052674903 0.2794949022166378 
outer loop
vertex -0.925419021241127 0.35997489319069603 0.39982937732657425 
vertex -1.0151009676660772 1.0234868508263162e-16 0.7177847778257093 
vertex -0.6233377722678235 0.6233377722678236 0.8815327314805878 
endloop
endfacet
facet normal -0.8462141200284403 0.45068115880390197 0.28426775435083096 
outer loop
vertex -0.925419021241127 0.35997489319069603 0.39982937732657425 
vertex -0.6233377722678235 0.6233377722678236 0.8815327314805878 
vertex -0.8165618004949602 0.8165618004949602 1.3877787807814457e-17 
endloop
endfacet
facet normal -0.8494552961903155 0.4474399826420269 0.279684039064667 
outer loop
vertex -0.925419021241127 0.35997489319069603 0.39982937732657425 
vertex -0.8165618004949602 0.8165618004949602 1.3877787807814457e-17 
vertex -1.246675544535647 1.3877787807814457e-16 0.0 
endloop
endfacet
facet normal -0.8483881626838695 0.4531226813549584 0.2737103597958636 
outer loop
vertex -0.925419021241127 0.35997489319069603 0.39982937732657425 
vertex -1.246675544535647 1.3877787807814457e-16 0.0 
vertex -1.0151009676660772 1.0234868508263162e-16 0.7177847778257093 
endloop
endfacet
facet normal -0.4474399826420267 0.8494552961903156 0.2796840390646672 
outer loop
vertex -0.3599748931906958 0.9254190212411268 0.39982937732657425 
vertex 1.8041124150158794e-16 1.246675544535647 1.3877787807814457e-17 
vertex -0.8165618004949602 0.8165618004949602 1.3877787807814457e-17 
endloop
endfacet
facet normal -0.4506811588039015 0.8462141200284407 0.2842677543508309 
outer loop
vertex -0.3599748931906958 0.9254190212411268 0.39982937732657425 
vertex -0.8165618004949602 0.8165618004949602 1.3877787807814457e-17 
vertex -0.6233377722678235 0.6233377722678236 0.8815327314805878 
endloop
endfacet
facet normal -0.45721297052674836 0.8442978735120792 0.27949490221663786 
outer loop
vertex -0.3599748931906958 0.9254190212411268 0.39982937732657425 
vertex -0.6233377722678235 0.6233377722678236 0.8815327314805878 
vertex 1.4586133227171652e-16 1.0151009676660767 0.7177847778257093 
endloop
endfacet
facet normal -0.453122681354958 0.8483881626838696 0.27371035979586406 
outer loop
vertex -0.3599748931906958 0.9254190212411268 0.39982937732657425 
vertex 1.4586133227171652e-16 1.0151009676660767 0.7177847778257093 
vertex 1.8041124150158794e-16 1.246675544535647 1.3877787807814457e-17 
endloop
endfacet
facet normal 0.8462141200284402 0.450681158803902 -0.2842677543508312 
outer loop
vertex 0.9254190212411273 0.359974893190696 -0.3998293773265742 
vertex 0.6233377722678237 0.6233377722678235 -0.8815327314805876 
vertex 0.8165618004949604 0.8165618004949604 0.0 
endloop
endfacet
facet normal 0.8494552961903155 0.4474399826420269 -0.2796840390646671 
outer loop
vertex 0.9254190212411273 0.359974893190696 -0.3998293773265742 
vertex 0.8165618004949604 0.8165618004949604 0.0 
vertex 1.2466755445356474 0.0 0.0 
endloop
endfacet
facet normal 0.8483881626838696 0.453122681354958 -0.27371035979586406 
outer loop
vertex 0.9254190212411273 0.359974893190696 -0.3998293773265742 
vertex 1.2466755445356474 0.0 0.0 
vertex 1.0151009676660772 -1.6335312732114932e-17 -0.7177847778257093 
endloop
endfacet
facet normal 0.8442978735120789 0.45721297052674864 -0.27949490221663836 
outer loop
vertex 0.9254190212411273 0.359974893190696 -0.3998293773265742 
vertex 1.0151009676660772 -1.6335312732114932e-17 -0.7177847778257093 
vertex 0.6233377722678237 0.6233377722678235 -0.8815327314805876 
endloop
endfacet
facet normal 0.4572129705267485 0.8442978735120791 -0.279494902216638 
outer loop
vertex 0.35997489319069614 0.9254190212411268 -0.3998293773265742 
vertex 0.6233377722678237 0.6233377722678235 -0.8815327314805876 
vertex 1.7058114180438602e-16 1.0151009676660767 -0.7177847778257093 
endloop
endfacet
facet normal 0.453122681354958 0.8483881626838696 -0.27371035979586406 
outer loop
vertex 0.35997489319069614 0.9254190212411268 -0.3998293773265742 
vertex 1.7058114180438602e-16 1.0151009676660767 -0.7177847778257093 
vertex 1.8041124150158794e-16 1.246675544535647 1.3877787807814457e-17 
endloop
endfacet
facet normal 0.4474399826420266 0.8494552961903155 -0.2796840390646674 
outer loop
vertex 0.35997489319069614 0.9254190212411268 -0.3998293773265742 
vertex 1.8041124150158794e-16 1.246675544535647 1.3877787807814457e-17 
vertex 0.8165618004949604 0.8165618004949604 0.0 
endloop
endfacet
facet normal 0.4506811588039014 0.8462141200284407 -0.2842677543508312 
outer loop
vertex 0.35997489319069614 0.9254190212411268 -0.3998293773265742 
vertex 0.8165618004949604 0.8165618004949604 0.0 
vertex 0.6233377722678237 0.6233377722678235 -0.8815327314805876 
endloop
endfacet
facet normal 0.45312268135495803 0.8483881626838695 0.2737103597958641 
outer loop
vertex 0.3599748931906961 0.9254190212411268 0.39982937732657425 
vertex 1.8041124150158794e-16 1.246675544535647 1.3877787807814457e-17 
vertex 1.4586133227171652e-16 1.0151009676660767 0.7177847778257093 
endloop
endfacet
facet normal 0.4572129705267485 0.8442978735120791 0.279494902216638 
outer loop
vertex 0.3599748931906961 0.9254190212411268 0.39982937732657425 
vertex 1.4586133227171652e-16 1.0151009676660767 0.7177847778257093 
vertex 0.6233377722678237 0.6233377722678235 0.8815327314805878 
endloop
endfacet
facet normal 0.45068115880390136 0.8462141200284407 0.2842677543508312 
outer loop
vertex 0.3599748931906961 0.9254190212411268 0.39982937732657425 
vertex 0.6233377722678237 0.6233377722678235 0.8815327314805878 
vertex 0.8165618004949604 0.8165618004949604 0.0 
endloop
endfacet
facet normal 0.44743998264202656 0.8494552961903153 0.2796840390646675 
outer loop
vertex 0.3599748931906961 0.9254190212411268 0.39982937732657425 
vertex 0.8165618004949604 0.8165618004949604 0.0 
vertex 1.8041124150158794e-16 1.246675544535647 1.3877787807814457e-17 
endloop
endfacet
facet normal 0.8462141200284404 0.4506811588039018 0.2842677543508311 
outer loop
vertex 0.9254190212411272 0.359974893190696 0.39982937732657425 
vertex 0.8165618004949604 0.8165618004949604 0.0 
vertex 0.6233377722678237 0.6233377722678235 0.8815327314805878 
endloop
endfacet
facet normal 0.8442978735120789 0.45721297052674864 0.27949490221663814 
outer loop
vertex 0.9254190212411272 0.359974893190696 0.39982937732657425 
vertex 0.6233377722678237 0.6233377722678235 0.8815327314805878 
vertex 1.0151009676660772 1.6624433311444402e-17 0.7177847778257093 
endloop
endfacet
facet normal 0.8483881626838696 0.45312268135495815 0.27371035979586406 
outer loop
vertex 0.9254190212411272 0.359974893190696 0.39982937732657425 
vertex 1.0151009676660772 1.6624433311444402e-17 0.7177847778257093 
vertex 1.2466755445356474 0.0 0.0 
endloop
endfacet
facet normal 0.8494552961903153 0.44743998264202683 0.27968403906466727 
outer loop
vertex 0.9254190212411272 0.359974893190696 0.39982937732657425 
vertex 1.2466755445356474 0.0 0.0 
vertex 0.8165618004949604 0.8165618004949604 0.0 
endloop
endfacet
facet normal 0.45068115880390164 -0.8462141200284404 -0.2842677543508312 
outer loop
vertex 0.359974893190696 -0.925419021241127 -0.3998293773265742 
vertex 0.6233377722678236 -0.6233377722678235 -0.8815327314805876 
vertex 0.8165618004949602 -0.8165618004949604 2.7755575615628914e-17 
endloop
endfacet
facet normal 0.44743998264202656 -0.8494552961903155 -0.2796840390646671 
outer loop
vertex 0.359974893190696 -0.925419021241127 -0.3998293773265742 
vertex 0.8165618004949602 -0.8165618004949604 2.7755575615628914e-17 
vertex -9.71445146547012e-17 -1.246675544535647 0.0 
endloop
endfacet
facet normal 0.45312268135495787 -0.8483881626838696 -0.27371035979586383 
outer loop
vertex 0.359974893190696 -0.925419021241127 -0.3998293773265742 
vertex -9.71445146547012e-17 -1.246675544535647 0.0 
vertex -1.0899845840720938e-16 -1.015100967666077 -0.7177847778257093 
endloop
endfacet
facet normal 0.45721297052674864 -0.844297873512079 -0.2794949022166381 
outer loop
vertex 0.359974893190696 -0.925419021241127 -0.3998293773265742 
vertex -1.0899845840720938e-16 -1.015100967666077 -0.7177847778257093 
vertex 0.6233377722678236 -0.6233377722678235 -0.8815327314805876 
endloop
endfacet
facet normal 0.8494552961903151 -0.447439982642027 -0.2796840390646672 
outer loop
vertex 0.9254190212411271 -0.359974893190696 -0.3998293773265742 
vertex 1.2466755445356474 0.0 0.0 
vertex 0.8165618004949602 -0.8165618004949604 2.7755575615628914e-17 
endloop
endfacet
facet normal 0.8462141200284404 -0.45068115880390186 -0.28426775435083107 
outer loop
vertex 0.9254190212411271 -0.359974893190696 -0.3998293773265742 
vertex 0.8165618004949602 -0.8165618004949604 2.7755575615628914e-17 
vertex 0.6233377722678236 -0.6233377722678235 -0.8815327314805876 
endloop
endfacet
facet normal 0.8442978735120787 -0.4572129705267488 -0.279494902216638 
outer loop
vertex 0.9254190212411271 -0.359974893190696 -0.3998293773265742 
vertex 0.6233377722678236 -0.6233377722678235 -0.8815327314805876 
vertex 1.0151009676660772 -1.6335312732114932e-17 -0.7177847778257093 
endloop
endfacet
facet normal 0.8483881626838693 -0.45312268135495837 -0.27371035979586394 
outer loop
vertex 0.9254190212411271 -0.359974893190696 -0.3998293773265742 
vertex 1.0151009676660772 -1.6335312732114932e-17 -0.7177847778257093 
vertex 1.2466755445356474 0.0 0.0 
endloop
endfacet
facet normal 0.844297873512079 -0.45721297052674864 0.2794949022166378 
outer loop
vertex 0.9254190212411271 -0.359974893190696 0.39982937732657425 
vertex 1.0151009676660772 1.6624433311444402e-17 0.7177847778257093 
vertex 0.6233377722678237 -0.6233377722678236 0.8815327314805878 
endloop
endfacet
facet normal 0.8462141200284405 -0.4506811588039018 0.2842677543508309 
outer loop
vertex 0.9254190212411271 -0.359974893190696 0.39982937732657425 
vertex 0.6233377722678237 -0.6233377722678236 0.8815327314805878 
vertex 0.8165618004949602 -0.8165618004949604 2.7755575615628914e-17 
endloop
endfacet
facet normal 0.8494552961903151 -0.447439982642027 0.2796840390646672 
outer loop
vertex 0.9254190212411271 -0.359974893190696 0.39982937732657425 
vertex 0.8165618004949602 -0.8165618004949604 2.7755575615628914e-17 
vertex 1.2466755445356474 0.0 0.0 
endloop
endfacet
facet normal 0.8483881626838693 -0.45312268135495837 0.27371035979586394 
outer loop
vertex 0.9254190212411271 -0.359974893190696 0.39982937732657425 
vertex 1.2466755445356474 0.0 0.0 
vertex 1.0151009676660772 1.6624433311444402e-17 0.7177847778257093 
endloop
endfacet
facet normal 0.4474399826420266 -0.8494552961903157 0.2796840390646669 
outer loop
vertex 0.359974893190696 -0.9254190212411271 0.39982937732657425 
vertex -9.71445146547012e-17 -1.246675544535647 0.0 
vertex 0.8165618004949602 -0.8165618004949604 2.7755575615628914e-17 
endloop
endfacet
facet normal 0.4506811588039017 -0.8462141200284405 0.284267754350831 
outer loop
vertex 0.359974893190696 -0.9254190212411271 0.39982937732657425 
vertex 0.8165618004949602 -0.8165618004949604 2.7755575615628914e-17 
vertex 0.6233377722678237 -0.6233377722678236 0.8815327314805878 
endloop
endfacet
facet normal 0.4572129705267483 -0.844297873512079 0.2794949022166381 
outer loop
vertex 0.359974893190696 -0.9254190212411271 0.39982937732657425 
vertex 0.6233377722678237 -0.6233377722678236 0.8815327314805878 
vertex -5.75349952865641e-17 -1.015100967666077 0.7177847778257093 
endloop
endfacet
facet normal 0.4531226813549577 -0.8483881626838696 0.27371035979586383 
outer loop
vertex 0.359974893190696 -0.9254190212411271 0.39982937732657425 
vertex -5.75349952865641e-17 -1.015100967666077 0.7177847778257093 
vertex -9.71445146547012e-17 -1.246675544535647 0.0 
endloop
endfacet
endsolid smooth-test
