solid smooth-test
facet normal 0.05432582268448658 -0.4636999014911261 -0.8843252265692605 
outer loop
vertex -2.7755575615628914e-17 -0.561886723926607 -0.9124789556921526 
vertex 8.326672684688674e-17 -9.25185853854297e-18 -1.2071067811865475 
vertex 0.6035533905932737 -0.6035533905932737 -0.8535533905932737 
endloop
endfacet
facet normal 0.06750636719426613 -0.3457217316318029 -0.9359056441040093 
outer loop
vertex -2.7755575615628914e-17 -0.561886723926607 -0.9124789556921526 
vertex 0.6035533905932737 -0.6035533905932737 -0.8535533905932737 
vertex -9.251858538542972e-17 -1.0404401145198807 -0.7357022603955158 
endloop
endfacet
facet normal -0.06750636719426611 -0.34572173163180286 -0.9359056441040093 
outer loop
vertex -2.7755575615628914e-17 -0.561886723926607 -0.9124789556921526 
vertex -9.251858538542972e-17 -1.0404401145198807 -0.7357022603955158 
vertex -0.6035533905932738 -0.6035533905932737 -0.8535533905932737 
endloop
endfacet
facet normal -0.05432582268448655 -0.46369990149112605 -0.8843252265692604 
outer loop
vertex -2.7755575615628914e-17 -0.561886723926607 -0.9124789556921526 
vertex -0.6035533905932738 -0.6035533905932737 -0.8535533905932737 
vertex 8.326672684688674e-17 -9.25185853854297e-18 -1.2071067811865475 
endloop
endfacet
facet normal -0.34572173163180303 -0.06750636719426632 -0.9359056441040092 
outer loop
vertex -0.5618867239266072 2.544261098099317e-17 -0.9124789556921528 
vertex -0.6035533905932738 -0.6035533905932737 -0.8535533905932737 
vertex -1.040440114519881 1.1102230246251565e-16 -0.7357022603955158 
endloop
endfacet
facet normal -0.34572173163180303 0.06750636719426639 -0.9359056441040092 
outer loop
vertex -0.5618867239266072 2.544261098099317e-17 -0.9124789556921528 
vertex -1.040440114519881 1.1102230246251565e-16 -0.7357022603955158 
vertex -0.6035533905932737 0.6035533905932737 -0.8535533905932737 
endloop
endfacet
facet normal -0.4636999014911256 0.05432582268448693 -0.8843252265692605 
outer loop
vertex -0.5618867239266072 2.544261098099317e-17 -0.9124789556921528 
vertex -0.6035533905932737 0.6035533905932737 -0.8535533905932737 
vertex 8.326672684688674e-17 -9.25185853854297e-18 -1.2071067811865475 
endloop
endfacet
facet normal -0.46369990149112567 -0.05432582268448684 -0.8843252265692605 
outer loop
vertex -0.5618867239266072 2.544261098099317e-17 -0.9124789556921528 
vertex 8.326672684688674e-17 -9.25185853854297e-18 -1.2071067811865475 
vertex -0.6035533905932738 -0.6035533905932737 -0.8535533905932737 
endloop
endfacet
facet normal -0.06750636719426627 0.3457217316318031 -0.9359056441040092 
outer loop
vertex 7.632783294297951e-17 0.561886723926607 -0.9124789556921528 
vertex -0.6035533905932737 0.6035533905932737 -0.8535533905932737 
vertex 1.4802973661668753e-16 1.0404401145198807 -0.7357022603955158 
endloop
endfacet
facet normal 0.06750636719426625 0.3457217316318031 -0.9359056441040093 
outer loop
vertex 7.632783294297951e-17 0.561886723926607 -0.9124789556921528 
vertex 1.4802973661668753e-16 1.0404401145198807 -0.7357022603955158 
vertex 0.6035533905932738 0.6035533905932737 -0.8535533905932737 
endloop
endfacet
facet normal 0.05432582268448675 0.4636999014911259 -0.8843252265692605 
outer loop
vertex 7.632783294297951e-17 0.561886723926607 -0.9124789556921528 
vertex 0.6035533905932738 0.6035533905932737 -0.8535533905932737 
vertex 8.326672684688674e-17 -9.25185853854297e-18 -1.2071067811865475 
endloop
endfacet
facet normal -0.05432582268448672 0.46369990149112594 -0.8843252265692605 
outer loop
vertex 7.632783294297951e-17 0.561886723926607 -0.9124789556921528 
vertex 8.326672684688674e-17 -9.25185853854297e-18 -1.2071067811865475 
vertex -0.6035533905932737 0.6035533905932737 -0.8535533905932737 
endloop
endfacet
facet normal 0.46369990149112594 0.05432582268448664 -0.8843252265692604 
outer loop
vertex 0.5618867239266072 0.0 -0.9124789556921526 
vertex 8.326672684688674e-17 -9.25185853854297e-18 -1.2071067811865475 
vertex 0.6035533905932738 0.6035533905932737 -0.8535533905932737 
endloop
endfacet
facet normal 0.34572173163180286 0.06750636719426617 -0.9359056441040093 
outer loop
vertex 0.5618867239266072 0.0 -0.9124789556921526 
vertex 0.6035533905932738 0.6035533905932737 -0.8535533905932737 
vertex 1.040440114519881 -3.700743415417188e-17 -0.7357022603955158 
endloop
endfacet
facet normal 0.34572173163180286 -0.06750636719426627 -0.9359056441040093 
outer loop
vertex 0.5618867239266072 0.0 -0.9124789556921526 
vertex 1.040440114519881 -3.700743415417188e-17 -0.7357022603955158 
vertex 0.6035533905932737 -0.6035533905932737 -0.8535533905932737 
endloop
endfacet
facet normal 0.46369990149112594 -0.05432582268448673 -0.8843252265692604 
outer loop
vertex 0.5618867239266072 0.0 -0.9124789556921526 
vertex 0.6035533905932737 -0.6035533905932737 -0.8535533905932737 
vertex 8.326672684688674e-17 -9.25185853854297e-18 -1.2071067811865475 
endloop
endfacet
facet normal 0.46369990149112594 0.05432582268448665 0.8843252265692605 
outer loop
vertex 0.5618867239266072 -4.625929269271485e-18 0.9124789556921526 
vertex 0.6035533905932738 0.6035533905932737 0.8535533905932737 
vertex 7.161005644977743e-17 0.0 1.2071067811865475 
endloop
endfacet
facet normal 0.46369990149112594 -0.05432582268448671 0.8843252265692604 
outer loop
vertex 0.5618867239266072 -4.625929269271485e-18 0.9124789556921526 
vertex 7.161005644977743e-17 0.0 1.2071067811865475 
vertex 0.6035533905932737 -0.6035533905932737 0.8535533905932737 
endloop
endfacet
facet normal 0.34572173163180286 -0.06750636719426624 0.9359056441040093 
outer loop
vertex 0.5618867239266072 -4.625929269271485e-18 0.9124789556921526 
vertex 0.6035533905932737 -0.6035533905932737 0.8535533905932737 
vertex 1.040440114519881 -1.850371707708594e-17 0.7357022603955158 
endloop
endfacet
facet normal 0.34572173163180286 0.06750636719426617 0.9359056441040093 
outer loop
vertex 0.5618867239266072 -4.625929269271485e-18 0.9124789556921526 
vertex 1.040440114519881 -1.850371707708594e-17 0.7357022603955158 
vertex 0.6035533905932738 0.6035533905932737 0.8535533905932737 
endloop
endfacet
facet normal -0.06750636719426613 0.34572173163180286 0.9359056441040093 
outer loop
vertex 1.1102230246251565e-16 0.561886723926607 0.9124789556921526 
vertex 1.4802973661668753e-16 1.0404401145198807 0.7357022603955158 
vertex -0.6035533905932736 0.6035533905932737 0.8535533905932737 
endloop
endfacet
facet normal -0.05432582268448657 0.4636999014911261 0.8843252265692605 
outer loop
vertex 1.1102230246251565e-16 0.561886723926607 0.9124789556921526 
vertex -0.6035533905932736 0.6035533905932737 0.8535533905932737 
vertex 7.161005644977743e-17 0.0 1.2071067811865475 
endloop
endfacet
facet normal 0.05432582268448658 0.463699901491126 0.8843252265692605 
outer loop
vertex 1.1102230246251565e-16 0.561886723926607 0.9124789556921526 
vertex 7.161005644977743e-17 0.0 1.2071067811865475 
vertex 0.6035533905932738 0.6035533905932737 0.8535533905932737 
endloop
endfacet
facet normal 0.06750636719426613 0.34572173163180286 0.9359056441040093 
outer loop
vertex 1.1102230246251565e-16 0.561886723926607 0.9124789556921526 
vertex 0.6035533905932738 0.6035533905932737 0.8535533905932737 
vertex 1.4802973661668753e-16 1.0404401145198807 0.7357022603955158 
endloop
endfacet
facet normal -0.46369990149112594 -0.05432582268448658 0.8843252265692605 
outer loop
vertex -0.5618867239266071 2.312964634635743e-17 0.9124789556921526 
vertex -0.6035533905932738 -0.6035533905932737 0.8535533905932737 
vertex 7.161005644977743e-17 0.0 1.2071067811865475 
endloop
endfacet
facet normal -0.46369990149112594 0.05432582268448678 0.8843252265692605 
outer loop
vertex -0.5618867239266071 2.312964634635743e-17 0.9124789556921526 
vertex 7.161005644977743e-17 0.0 1.2071067811865475 
vertex -0.6035533905932736 0.6035533905932737 0.8535533905932737 
endloop
endfacet
facet normal -0.34572173163180275 0.06750636719426625 0.9359056441040093 
outer loop
vertex -0.5618867239266071 2.312964634635743e-17 0.9124789556921526 
vertex -0.6035533905932736 0.6035533905932737 0.8535533905932737 
vertex -1.040440114519881 9.251858538542972e-17 0.7357022603955158 
endloop
endfacet
facet normal -0.34572173163180286 -0.06750636719426611 0.9359056441040093 
outer loop
vertex -0.5618867239266071 2.312964634635743e-17 0.9124789556921526 
vertex -1.040440114519881 9.251858538542972e-17 0.7357022603955158 
vertex -0.6035533905932738 -0.6035533905932737 0.8535533905932737 
endloop
endfacet
facet normal 0.06750636719426611 -0.3457217316318029 0.9359056441040093 
outer loop
vertex -2.7755575615628914e-17 -0.561886723926607 0.9124789556921526 
vertex -7.401486830834377e-17 -1.0404401145198807 0.7357022603955158 
vertex 0.6035533905932737 -0.6035533905932737 0.8535533905932737 
endloop
endfacet
facet normal 0.05432582268448657 -0.4636999014911261 0.8843252265692605 
outer loop
vertex -2.7755575615628914e-17 -0.561886723926607 0.9124789556921526 
vertex 0.6035533905932737 -0.6035533905932737 0.8535533905932737 
vertex 7.161005644977743e-17 0.0 1.2071067811865475 
endloop
endfacet
facet normal -0.05432582268448657 -0.46369990149112605 0.8843252265692604 
outer loop
vertex -2.7755575615628914e-17 -0.561886723926607 0.9124789556921526 
vertex 7.161005644977743e-17 0.0 1.2071067811865475 
vertex -0.6035533905932738 -0.6035533905932737 0.8535533905932737 
endloop
endfacet
facet normal -0.06750636719426611 -0.34572173163180286 0.9359056441040093 
outer loop
vertex -2.7755575615628914e-17 -0.561886723926607 0.9124789556921526 
vertex -0.6035533905932738 -0.6035533905932737 0.8535533905932737 
vertex -7.401486830834377e-17 -1.0404401145198807 0.7357022603955158 
endloop
endfacet
facet normal -0.8843252265692605 -0.3662995023936475 -0.28947118716617065 
outer loop
vertex -0.9261634192232441 -0.3642766952966368 -0.3973139127471974 
vertex -0.853553390593274 -0.8535533905932737 0.0 
vertex -1.2071067811865475 1.3877787807814457e-16 0.0 
endloop
endfacet
facet normal -0.8683992769097432 -0.4551711780836737 -0.19672797082406868 
outer loop
vertex -0.9261634192232441 -0.3642766952966368 -0.3973139127471974 
vertex -1.2071067811865475 1.3877787807814457e-16 0.0 
vertex -1.040440114519881 1.1102230246251565e-16 -0.7357022603955158 
endloop
endfacet
facet normal -0.8008929097154769 -0.5226775452779401 -0.2921963908567384 
outer loop
vertex -0.9261634192232441 -0.3642766952966368 -0.3973139127471974 
vertex -1.040440114519881 1.1102230246251565e-16 -0.7357022603955158 
vertex -0.6035533905932738 -0.6035533905932737 -0.8535533905932737 
endloop
endfacet
facet normal -0.8299994038847738 -0.42062532507813427 -0.3662995023936478 
outer loop
vertex -0.9261634192232441 -0.3642766952966368 -0.3973139127471974 
vertex -0.6035533905932738 -0.6035533905932737 -0.8535533905932737 
vertex -0.853553390593274 -0.8535533905932737 0.0 
endloop
endfacet
facet normal -0.5226775452779402 -0.800892909715477 -0.2921963908567385 
outer loop
vertex -0.364276695296637 -0.926163419223244 -0.3973139127471974 
vertex -0.6035533905932738 -0.6035533905932737 -0.8535533905932737 
vertex -9.251858538542972e-17 -1.0404401145198807 -0.7357022603955158 
endloop
endfacet
facet normal -0.4551711780836738 -0.8683992769097432 -0.19672797082406893 
outer loop
vertex -0.364276695296637 -0.926163419223244 -0.3973139127471974 
vertex -9.251858538542972e-17 -1.0404401145198807 -0.7357022603955158 
vertex -1.1102230246251565e-16 -1.2071067811865475 0.0 
endloop
endfacet
facet normal -0.3662995023936477 -0.8843252265692604 -0.2894711871661707 
outer loop
vertex -0.364276695296637 -0.926163419223244 -0.3973139127471974 
vertex -1.1102230246251565e-16 -1.2071067811865475 0.0 
vertex -0.853553390593274 -0.8535533905932737 0.0 
endloop
endfacet
facet normal -0.4206253250781345 -0.8299994038847738 -0.36629950239364784 
outer loop
vertex -0.364276695296637 -0.926163419223244 -0.3973139127471974 
vertex -0.853553390593274 -0.8535533905932737 0.0 
vertex -0.6035533905932738 -0.6035533905932737 -0.8535533905932737 
endloop
endfacet
facet normal -0.4551711780836738 -0.8683992769097432 0.19672797082406895 
outer loop
vertex -0.364276695296637 -0.926163419223244 0.3973139127471974 
vertex -1.1102230246251565e-16 -1.2071067811865475 0.0 
vertex -7.401486830834377e-17 -1.0404401145198807 0.7357022603955158 
endloop
endfacet
facet normal -0.5226775452779401 -0.8008929097154769 0.2921963908567385 
outer loop
vertex -0.364276695296637 -0.926163419223244 0.3973139127471974 
vertex -7.401486830834377e-17 -1.0404401145198807 0.7357022603955158 
vertex -0.6035533905932738 -0.6035533905932737 0.8535533905932737 
endloop
endfacet
facet normal -0.42062532507813444 -0.8299994038847738 0.3662995023936478 
outer loop
vertex -0.364276695296637 -0.926163419223244 0.3973139127471974 
vertex -0.6035533905932738 -0.6035533905932737 0.8535533905932737 
vertex -0.853553390593274 -0.8535533905932737 0.0 
endloop
endfacet
facet normal -0.3662995023936477 -0.8843252265692604 0.2894711871661707 
outer loop
vertex -0.364276695296637 -0.926163419223244 0.3973139127471974 
vertex -0.853553390593274 -0.8535533905932737 0.0 
vertex -1.1102230246251565e-16 -1.2071067811865475 0.0 
endloop
endfacet
facet normal -0.8299994038847738 -0.4206253250781343 0.36629950239364784 
outer loop
vertex -0.9261634192232441 -0.3642766952966368 0.3973139127471974 
vertex -0.853553390593274 -0.8535533905932737 0.0 
vertex -0.6035533905932738 -0.6035533905932737 0.8535533905932737 
endloop
endfacet
facet normal -0.8008929097154769 -0.5226775452779402 0.2921963908567384 
outer loop
vertex -0.9261634192232441 -0.3642766952966368 0.3973139127471974 
vertex -0.6035533905932738 -0.6035533905932737 0.8535533905932737 
vertex -1.040440114519881 9.251858538542972e-17 0.7357022603955158 
endloop
endfacet
facet normal -0.8683992769097432 -0.4551711780836737 0.19672797082406862 
outer loop
vertex -0.9261634192232441 -0.3642766952966368 0.3973139127471974 
vertex -1.040440114519881 9.251858538542972e-17 0.7357022603955158 
vertex -1.2071067811865475 1.3877787807814457e-16 0.0 
endloop
endfacet
facet normal -0.8843252265692605 -0.3662995023936475 0.2894711871661706 
outer loop
vertex -0.9261634192232441 -0.3642766952966368 0.3973139127471974 
vertex -1.2071067811865475 1.3877787807814457e-16 0.0 
vertex -0.853553390593274 -0.8535533905932737 0.0 
endloop
endfacet
facet normal -0.5226775452779401 0.8008929097154769 -0.29219639085673826 
outer loop
vertex -0.3642766952966368 0.9261634192232439 -0.3973139127471974 
vertex 1.4802973661668753e-16 1.0404401145198807 -0.7357022603955158 
vertex -0.6035533905932737 0.6035533905932737 -0.8535533905932737 
endloop
endfacet
facet normal -0.4206253250781342 0.8299994038847739 -0.36629950239364767 
outer loop
vertex -0.3642766952966368 0.9261634192232439 -0.3973139127471974 
vertex -0.6035533905932737 0.6035533905932737 -0.8535533905932737 
vertex -0.8535533905932737 0.8535533905932737 0.0 
endloop
endfacet
facet normal -0.36629950239364767 0.8843252265692604 -0.2894711871661708 
outer loop
vertex -0.3642766952966368 0.9261634192232439 -0.3973139127471974 
vertex -0.8535533905932737 0.8535533905932737 0.0 
vertex 1.6653345369377348e-16 1.2071067811865475 0.0 
endloop
endfacet
facet normal -0.4551711780836739 0.8683992769097432 -0.19672797082406893 
outer loop
vertex -0.3642766952966368 0.9261634192232439 -0.3973139127471974 
vertex 1.6653345369377348e-16 1.2071067811865475 0.0 
vertex 1.4802973661668753e-16 1.0404401145198807 -0.7357022603955158 
endloop
endfacet
facet normal -0.8843252265692605 0.3662995023936479 -0.28947118716617076 
outer loop
vertex -0.926163419223244 0.36427669529663687 -0.3973139127471974 
vertex -1.2071067811865475 1.3877787807814457e-16 0.0 
vertex -0.8535533905932737 0.8535533905932737 0.0 
endloop
endfacet
facet normal -0.8299994038847738 0.4206253250781345 -0.3662995023936478 
outer loop
vertex -0.926163419223244 0.36427669529663687 -0.3973139127471974 
vertex -0.8535533905932737 0.8535533905932737 0.0 
vertex -0.6035533905932737 0.6035533905932737 -0.8535533905932737 
endloop
endfacet
facet normal -0.8008929097154768 0.5226775452779404 -0.2921963908567382 
outer loop
vertex -0.926163419223244 0.36427669529663687 -0.3973139127471974 
vertex -0.6035533905932737 0.6035533905932737 -0.8535533905932737 
vertex -1.040440114519881 1.1102230246251565e-16 -0.7357022603955158 
endloop
endfacet
facet normal -0.8683992769097432 0.45517117808367424 -0.19672797082406868 
outer loop
vertex -0.926163419223244 0.36427669529663687 -0.3973139127471974 
vertex -1.040440114519881 1.1102230246251565e-16 -0.7357022603955158 
vertex -1.2071067811865475 1.3877787807814457e-16 0.0 
endloop
endfacet
facet normal -0.8008929097154768 0.5226775452779405 0.29219639085673815 
outer loop
vertex -0.9261634192232439 0.3642766952966369 0.3973139127471974 
vertex -1.040440114519881 9.251858538542972e-17 0.7357022603955158 
vertex -0.6035533905932736 0.6035533905932737 0.8535533905932737 
endloop
endfacet
facet normal -0.8299994038847737 0.4206253250781344 0.3662995023936479 
outer loop
vertex -0.9261634192232439 0.3642766952966369 0.3973139127471974 
vertex -0.6035533905932736 0.6035533905932737 0.8535533905932737 
vertex -0.8535533905932737 0.8535533905932737 0.0 
endloop
endfacet
facet normal -0.8843252265692604 0.36629950239364784 0.2894711871661709 
outer loop
vertex -0.9261634192232439 0.3642766952966369 0.3973139127471974 
vertex -0.8535533905932737 0.8535533905932737 0.0 
vertex -1.2071067811865475 1.3877787807814457e-16 0.0 
endloop
endfacet
facet normal -0.868399276909743 0.4551711780836744 0.19672797082406868 
outer loop
vertex -0.9261634192232439 0.3642766952966369 0.3973139127471974 
vertex -1.2071067811865475 1.3877787807814457e-16 0.0 
vertex -1.040440114519881 9.251858538542972e-17 0.7357022603955158 
endloop
endfacet
facet normal -0.36629950239364767 0.8843252265692604 0.2894711871661707 
outer loop
vertex -0.3642766952966367 0.926163419223244 0.3973139127471974 
vertex 1.6653345369377348e-16 1.2071067811865475 0.0 
vertex -0.8535533905932737 0.8535533905932737 0.0 
endloop
endfacet
facet normal -0.42062532507813444 0.8299994038847738 0.36629950239364784 
outer loop
vertex -0.3642766952966367 0.926163419223244 0.3973139127471974 
vertex -0.8535533905932737 0.8535533905932737 0.0 
vertex -0.6035533905932736 0.6035533905932737 0.8535533905932737 
endloop
endfacet
facet normal -0.5226775452779402 0.800892909715477 0.2921963908567384 
outer loop
vertex -0.3642766952966367 0.926163419223244 0.3973139127471974 
vertex -0.6035533905932736 0.6035533905932737 0.8535533905932737 
vertex 1.4802973661668753e-16 1.0404401145198807 0.7357022603955158 
endloop
endfacet
facet normal -0.4551711780836738 0.8683992769097432 0.19672797082406893 
outer loop
vertex -0.3642766952966367 0.926163419223244 0.3973139127471974 
vertex 1.4802973661668753e-16 1.0404401145198807 0.7357022603955158 
vertex 1.6653345369377348e-16 1.2071067811865475 0.0 
endloop
endfacet
facet normal 0.8299994038847738 0.42062532507813444 -0.3662995023936477 
outer loop
vertex 0.926163419223244 0.36427669529663687 -0.3973139127471974 
vertex 0.6035533905932738 0.6035533905932737 -0.8535533905932737 
vertex 0.8535533905932737 0.8535533905932737 0.0 
endloop
endfacet
facet normal 0.8843252265692605 0.36629950239364784 -0.2894711871661707 
outer loop
vertex 0.926163419223244 0.36427669529663687 -0.3973139127471974 
vertex 0.8535533905932737 0.8535533905932737 0.0 
vertex 1.2071067811865475 -2.7755575615628914e-17 0.0 
endloop
endfacet
facet normal 0.8683992769097432 0.4551711780836741 -0.19672797082406868 
outer loop
vertex 0.926163419223244 0.36427669529663687 -0.3973139127471974 
vertex 1.2071067811865475 -2.7755575615628914e-17 0.0 
vertex 1.040440114519881 -3.700743415417188e-17 -0.7357022603955158 
endloop
endfacet
facet normal 0.8008929097154769 0.5226775452779402 -0.29219639085673826 
outer loop
vertex 0.926163419223244 0.36427669529663687 -0.3973139127471974 
vertex 1.040440114519881 -3.700743415417188e-17 -0.7357022603955158 
vertex 0.6035533905932738 0.6035533905932737 -0.8535533905932737 
endloop
endfacet
facet normal 0.5226775452779402 0.800892909715477 -0.2921963908567385 
outer loop
vertex 0.364276695296637 0.926163419223244 -0.3973139127471974 
vertex 0.6035533905932738 0.6035533905932737 -0.8535533905932737 
vertex 1.4802973661668753e-16 1.0404401145198807 -0.7357022603955158 
endloop
endfacet
facet normal 0.45517117808367386 0.8683992769097432 -0.19672797082406893 
outer loop
vertex 0.364276695296637 0.926163419223244 -0.3973139127471974 
vertex 1.4802973661668753e-16 1.0404401145198807 -0.7357022603955158 
vertex 1.6653345369377348e-16 1.2071067811865475 0.0 
endloop
endfacet
facet normal 0.3662995023936479 0.8843252265692605 -0.28947118716617065 
outer loop
vertex 0.364276695296637 0.926163419223244 -0.3973139127471974 
vertex 1.6653345369377348e-16 1.2071067811865475 0.0 
vertex 0.8535533905932737 0.8535533905932737 0.0 
endloop
endfacet
facet normal 0.42062532507813455 0.8299994038847737 -0.3662995023936477 
outer loop
vertex 0.364276695296637 0.926163419223244 -0.3973139127471974 
vertex 0.8535533905932737 0.8535533905932737 0.0 
vertex 0.6035533905932738 0.6035533905932737 -0.8535533905932737 
endloop
endfacet
facet normal 0.45517117808367386 0.8683992769097432 0.19672797082406895 
outer loop
vertex 0.364276695296637 0.926163419223244 0.3973139127471974 
vertex 1.6653345369377348e-16 1.2071067811865475 0.0 
vertex 1.4802973661668753e-16 1.0404401145198807 0.7357022603955158 
endloop
endfacet
facet normal 0.5226775452779402 0.800892909715477 0.2921963908567385 
outer loop
vertex 0.364276695296637 0.926163419223244 0.3973139127471974 
vertex 1.4802973661668753e-16 1.0404401145198807 0.7357022603955158 
vertex 0.6035533905932738 0.6035533905932737 0.8535533905932737 
endloop
endfacet
facet normal 0.42062532507813455 0.8299994038847737 0.3662995023936477 
outer loop
vertex 0.364276695296637 0.926163419223244 0.3973139127471974 
vertex 0.6035533905932738 0.6035533905932737 0.8535533905932737 
vertex 0.8535533905932737 0.8535533905932737 0.0 
endloop
endfacet
facet normal 0.3662995023936479 0.8843252265692605 0.28947118716617065 
outer loop
vertex 0.364276695296637 0.926163419223244 0.3973139127471974 
vertex 0.8535533905932737 0.8535533905932737 0.0 
vertex 1.6653345369377348e-16 1.2071067811865475 0.0 
endloop
endfacet
facet normal 0.8299994038847738 0.4206253250781344 0.3662995023936476 
outer loop
vertex 0.926163419223244 0.36427669529663687 0.3973139127471974 
vertex 0.8535533905932737 0.8535533905932737 0.0 
vertex 0.6035533905932738 0.6035533905932737 0.8535533905932737 
endloop
endfacet
facet normal 0.8008929097154768 0.5226775452779403 0.29219639085673815 
outer loop
vertex 0.926163419223244 0.36427669529663687 0.3973139127471974 
vertex 0.6035533905932738 0.6035533905932737 0.8535533905932737 
vertex 1.040440114519881 -1.850371707708594e-17 0.7357022603955158 
endloop
endfacet
facet normal 0.8683992769097432 0.4551711780836741 0.19672797082406868 
outer loop
vertex 0.926163419223244 0.36427669529663687 0.3973139127471974 
vertex 1.040440114519881 -1.850371707708594e-17 0.7357022603955158 
vertex 1.2071067811865475 -2.7755575615628914e-17 0.0 
endloop
endfacet
facet normal 0.8843252265692605 0.36629950239364784 0.2894711871661707 
outer loop
vertex 0.926163419223244 0.36427669529663687 0.3973139127471974 
vertex 1.2071067811865475 -2.7755575615628914e-17 0.0 
vertex 0.8535533905932737 0.8535533905932737 0.0 
endloop
endfacet
facet normal 0.42062532507813455 -0.8299994038847737 -0.36629950239364784 
outer loop
vertex 0.36427669529663687 -0.926163419223244 -0.3973139127471974 
vertex 0.6035533905932737 -0.6035533905932737 -0.8535533905932737 
vertex 0.8535533905932737 -0.8535533905932737 0.0 
endloop
endfacet
facet normal 0.3662995023936478 -0.8843252265692605 -0.28947118716617065 
outer loop
vertex 0.36427669529663687 -0.926163419223244 -0.3973139127471974 
vertex 0.8535533905932737 -0.8535533905932737 0.0 
vertex -1.1102230246251565e-16 -1.2071067811865475 0.0 
endloop
endfacet
facet normal 0.4551711780836737 -0.8683992769097432 -0.19672797082406893 
outer loop
vertex 0.36427669529663687 -0.926163419223244 -0.3973139127471974 
vertex -1.1102230246251565e-16 -1.2071067811865475 0.0 
vertex -9.251858538542972e-17 -1.0404401145198807 -0.7357022603955158 
endloop
endfacet
facet normal 0.52267754527794 -0.8008929097154769 -0.2921963908567385 
outer loop
vertex 0.36427669529663687 -0.926163419223244 -0.3973139127471974 
vertex -9.251858538542972e-17 -1.0404401145198807 -0.7357022603955158 
vertex 0.6035533905932737 -0.6035533905932737 -0.8535533905932737 
endloop
endfacet
facet normal 0.8843252265692605 -0.36629950239364784 -0.2894711871661707 
outer loop
vertex 0.926163419223244 -0.36427669529663687 -0.3973139127471974 
vertex 1.2071067811865475 -2.7755575615628914e-17 0.0 
vertex 0.8535533905932737 -0.8535533905932737 0.0 
endloop
endfacet
facet normal 0.8299994038847738 -0.4206253250781345 -0.3662995023936478 
outer loop
vertex 0.926163419223244 -0.36427669529663687 -0.3973139127471974 
vertex 0.8535533905932737 -0.8535533905932737 0.0 
vertex 0.6035533905932737 -0.6035533905932737 -0.8535533905932737 
endloop
endfacet
facet normal 0.8008929097154768 -0.5226775452779403 -0.29219639085673826 
outer loop
vertex 0.926163419223244 -0.36427669529663687 -0.3973139127471974 
vertex 0.6035533905932737 -0.6035533905932737 -0.8535533905932737 
vertex 1.040440114519881 -3.700743415417188e-17 -0.7357022603955158 
endloop
endfacet
facet normal 0.8683992769097432 -0.45517117808367413 -0.19672797082406868 
outer loop
vertex 0.926163419223244 -0.36427669529663687 -0.3973139127471974 
vertex 1.040440114519881 -3.700743415417188e-17 -0.7357022603955158 
vertex 1.2071067811865475 -2.7755575615628914e-17 0.0 
endloop
endfacet
facet normal 0.8008929097154767 -0.5226775452779403 0.2921963908567382 
outer loop
vertex 0.926163419223244 -0.36427669529663687 0.3973139127471974 
vertex 1.040440114519881 -1.850371707708594e-17 0.7357022603955158 
vertex 0.6035533905932737 -0.6035533905932737 0.8535533905932737 
endloop
endfacet
facet normal 0.8299994038847737 -0.42062532507813455 0.36629950239364784 
outer loop
vertex 0.926163419223244 -0.36427669529663687 0.3973139127471974 
vertex 0.6035533905932737 -0.6035533905932737 0.8535533905932737 
vertex 0.8535533905932737 -0.8535533905932737 0.0 
endloop
endfacet
facet normal 0.8843252265692605 -0.36629950239364784 0.2894711871661707 
outer loop
vertex 0.926163419223244 -0.36427669529663687 0.3973139127471974 
vertex 0.8535533905932737 -0.8535533905932737 0.0 
vertex 1.2071067811865475 -2.7755575615628914e-17 0.0 
endloop
endfacet
facet normal 0.8683992769097432 -0.4551711780836741 0.19672797082406868 
outer loop
vertex 0.926163419223244 -0.36427669529663687 0.3973139127471974 
vertex 1.2071067811865475 -2.7755575615628914e-17 0.0 
vertex 1.040440114519881 -1.850371707708594e-17 0.7357022603955158 
endloop
endfacet
facet normal 0.3662995023936478 -0.8843252265692605 0.2894711871661706 
outer loop
vertex 0.36427669529663687 -0.926163419223244 0.3973139127471974 
vertex -1.1102230246251565e-16 -1.2071067811865475 0.0 
vertex 0.8535533905932737 -0.8535533905932737 0.0 
endloop
endfacet
facet normal 0.4206253250781345 -0.8299994038847738 0.3662995023936478 
outer loop
vertex 0.36427669529663687 -0.926163419223244 0.3973139127471974 
vertex 0.8535533905932737 -0.8535533905932737 0.0 
vertex 0.6035533905932737 -0.6035533905932737 0.8535533905932737 
endloop
endfacet
facet normal 0.52267754527794 -0.8008929097154769 0.29219639085673854 
outer loop
vertex 0.36427669529663687 -0.926163419223244 0.3973139127471974 
vertex 0.6035533905932737 -0.6035533905932737 0.8535533905932737 
vertex -7.401486830834377e-17 -1.0404401145198807 0.7357022603955158 
endloop
endfacet
facet normal 0.4551711780836737 -0.8683992769097432 0.1967279708240689 
outer loop
vertex 0.36427669529663687 -0.926163419223244 0.3973139127471974 
vertex -7.401486830834377e-17 -1.0404401145198807 0.7357022603955158 
vertex -1.1102230246251565e-16 -1.2071067811865475 0.0 
endloop
endfacet
endsolid smooth-test
