solid smooth-test
facet normal 0.013114836166723053 -0.4124482966843635 -0.9108866030601654 
outer loop
vertex -2.7755575615628914e-17 -0.5647141361453965 -0.9096381254509476 
vertex 9.71445146547012e-17 -4.462080945635945e-18 -1.165339968890362 
vertex 0.6193970810478499 -0.6193970810478497 -0.8759597525121763 
endloop
endfacet
facet normal 0.01649793319792413 -0.38217004803950666 -0.923944734592756 
outer loop
vertex -2.7755575615628914e-17 -0.5647141361453965 -0.9096381254509476 
vertex 0.6193970810478499 -0.6193970810478497 -0.8759597525121763 
vertex -1.0466164971726737e-16 -1.0200623824858863 -0.721293027889076 
endloop
endfacet
facet normal -0.016497933197924024 -0.38217004803950655 -0.9239447345927557 
outer loop
vertex -2.7755575615628914e-17 -0.5647141361453965 -0.9096381254509476 
vertex -1.0466164971726737e-16 -1.0200623824858863 -0.721293027889076 
vertex -0.61939708104785 -0.6193970810478499 -0.8759597525121763 
endloop
endfacet
facet normal -0.013114836166722979 -0.4124482966843635 -0.9108866030601654 
outer loop
vertex -2.7755575615628914e-17 -0.5647141361453965 -0.9096381254509476 
vertex -0.61939708104785 -0.6193970810478499 -0.8759597525121763 
vertex 9.71445146547012e-17 -4.462080945635945e-18 -1.165339968890362 
endloop
endfacet
facet normal -0.3821700480395066 -0.016497933197924072 -0.923944734592756 
outer loop
vertex -0.5647141361453966 -1.1155202364089863e-18 -0.9096381254509476 
vertex -0.61939708104785 -0.6193970810478499 -0.8759597525121763 
vertex -1.0200623824858865 9.194034422677078e-17 -0.721293027889076 
endloop
endfacet
facet normal -0.38217004803950655 0.01649793319792412 -0.923944734592756 
outer loop
vertex -0.5647141361453966 -1.1155202364089863e-18 -0.9096381254509476 
vertex -1.0200623824858865 9.194034422677078e-17 -0.721293027889076 
vertex -0.6193970810478499 0.6193970810478497 -0.8759597525121763 
endloop
endfacet
facet normal -0.41244829668436334 0.013114836166723069 -0.9108866030601654 
outer loop
vertex -0.5647141361453966 -1.1155202364089863e-18 -0.9096381254509476 
vertex -0.6193970810478499 0.6193970810478497 -0.8759597525121763 
vertex 9.71445146547012e-17 -4.462080945635945e-18 -1.165339968890362 
endloop
endfacet
facet normal -0.4124482966843633 -0.013114836166722975 -0.9108866030601654 
outer loop
vertex -0.5647141361453966 -1.1155202364089863e-18 -0.9096381254509476 
vertex 9.71445146547012e-17 -4.462080945635945e-18 -1.165339968890362 
vertex -0.61939708104785 -0.6193970810478499 -0.8759597525121763 
endloop
endfacet
facet normal -0.016497933197924128 0.38217004803950666 -0.9239447345927557 
outer loop
vertex 1.0755285551056204e-16 0.5647141361453965 -0.9096381254509476 
vertex -0.6193970810478499 0.6193970810478497 -0.8759597525121763 
vertex 1.7867651802561113e-16 1.0200623824858863 -0.721293027889076 
endloop
endfacet
facet normal 0.01649793319792412 0.38217004803950666 -0.923944734592756 
outer loop
vertex 1.0755285551056204e-16 0.5647141361453965 -0.9096381254509476 
vertex 1.7867651802561113e-16 1.0200623824858863 -0.721293027889076 
vertex 0.61939708104785 0.6193970810478497 -0.8759597525121763 
endloop
endfacet
facet normal 0.013114836166723053 0.4124482966843635 -0.9108866030601654 
outer loop
vertex 1.0755285551056204e-16 0.5647141361453965 -0.9096381254509476 
vertex 0.61939708104785 0.6193970810478497 -0.8759597525121763 
vertex 9.71445146547012e-17 -4.462080945635945e-18 -1.165339968890362 
endloop
endfacet
facet normal -0.013114836166723052 0.4124482966843635 -0.9108866030601654 
outer loop
vertex 1.0755285551056204e-16 0.5647141361453965 -0.9096381254509476 
vertex 9.71445146547012e-17 -4.462080945635945e-18 -1.165339968890362 
vertex -0.6193970810478499 0.6193970810478497 -0.8759597525121763 
endloop
endfacet
facet normal 0.4124482966843634 0.013114836166723053 -0.9108866030601654 
outer loop
vertex 0.5647141361453967 0.0 -0.9096381254509476 
vertex 9.71445146547012e-17 -4.462080945635945e-18 -1.165339968890362 
vertex 0.61939708104785 0.6193970810478497 -0.8759597525121763 
endloop
endfacet
facet normal 0.38217004803950666 0.016497933197924135 -0.923944734592756 
outer loop
vertex 0.5647141361453967 0.0 -0.9096381254509476 
vertex 0.61939708104785 0.6193970810478497 -0.8759597525121763 
vertex 1.0200623824858865 -4.915049848600953e-17 -0.721293027889076 
endloop
endfacet
facet normal 0.3821700480395067 -0.01649793319792417 -0.923944734592756 
outer loop
vertex 0.5647141361453967 0.0 -0.9096381254509476 
vertex 1.0200623824858865 -4.915049848600953e-17 -0.721293027889076 
vertex 0.6193970810478499 -0.6193970810478497 -0.8759597525121763 
endloop
endfacet
facet normal 0.4124482966843634 -0.013114836166723135 -0.9108866030601654 
outer loop
vertex 0.5647141361453967 0.0 -0.9096381254509476 
vertex 0.6193970810478499 -0.6193970810478497 -0.8759597525121763 
vertex 9.71445146547012e-17 -4.462080945635945e-18 -1.165339968890362 
endloop
endfacet
facet normal 0.41244829668436334 0.01311483616672306 0.9108866030601654 
outer loop
vertex 0.5647141361453967 -2.920117851227625e-17 0.9096381254509476 
vertex 0.61939708104785 0.6193970810478497 0.8759597525121763 
vertex 9.162826184145866e-17 0.0 1.165339968890362 
endloop
endfacet
facet normal 0.41244829668436345 -0.013114836166723124 0.9108866030601654 
outer loop
vertex 0.5647141361453967 -2.920117851227625e-17 0.9096381254509476 
vertex 9.162826184145866e-17 0.0 1.165339968890362 
vertex 0.6193970810478499 -0.6193970810478499 0.8759597525121763 
endloop
endfacet
facet normal 0.38217004803950666 -0.0164979331979242 0.923944734592756 
outer loop
vertex 0.5647141361453967 -2.920117851227625e-17 0.9096381254509476 
vertex 0.6193970810478499 -0.6193970810478499 0.8759597525121763 
vertex 1.0200623824858865 -5.782411586589357e-18 0.721293027889076 
endloop
endfacet
facet normal 0.38217004803950666 0.016497933197924124 0.923944734592756 
outer loop
vertex 0.5647141361453967 -2.920117851227625e-17 0.9096381254509476 
vertex 1.0200623824858865 -5.782411586589357e-18 0.721293027889076 
vertex 0.61939708104785 0.6193970810478497 0.8759597525121763 
endloop
endfacet
facet normal -0.01649793319792403 0.3821700480395066 0.923944734592756 
outer loop
vertex 1.1102230246251565e-16 0.5647141361453965 0.9096381254509476 
vertex 1.6017280094852518e-16 1.0200623824858863 0.721293027889076 
vertex -0.6193970810478497 0.6193970810478499 0.8759597525121763 
endloop
endfacet
facet normal -0.01311483616672298 0.4124482966843635 0.9108866030601654 
outer loop
vertex 1.1102230246251565e-16 0.5647141361453965 0.9096381254509476 
vertex -0.6193970810478497 0.6193970810478499 0.8759597525121763 
vertex 9.162826184145866e-17 0.0 1.165339968890362 
endloop
endfacet
facet normal 0.013114836166723053 0.4124482966843635 0.9108866030601654 
outer loop
vertex 1.1102230246251565e-16 0.5647141361453965 0.9096381254509476 
vertex 9.162826184145866e-17 0.0 1.165339968890362 
vertex 0.61939708104785 0.6193970810478497 0.8759597525121763 
endloop
endfacet
facet normal 0.01649793319792413 0.38217004803950666 0.923944734592756 
outer loop
vertex 1.1102230246251565e-16 0.5647141361453965 0.9096381254509476 
vertex 0.61939708104785 0.6193970810478497 0.8759597525121763 
vertex 1.6017280094852518e-16 1.0200623824858863 0.721293027889076 
endloop
endfacet
facet normal -0.4124482966843634 -0.01311483616672291 0.9108866030601654 
outer loop
vertex -0.5647141361453965 4.915049848600954e-17 0.9096381254509476 
vertex -0.61939708104785 -0.6193970810478497 0.8759597525121763 
vertex 9.162826184145866e-17 0.0 1.165339968890362 
endloop
endfacet
facet normal -0.4124482966843634 0.013114836166723053 0.9108866030601654 
outer loop
vertex -0.5647141361453965 4.915049848600954e-17 0.9096381254509476 
vertex 9.162826184145866e-17 0.0 1.165339968890362 
vertex -0.6193970810478497 0.6193970810478499 0.8759597525121763 
endloop
endfacet
facet normal -0.3821700480395065 0.01649793319792415 0.923944734592756 
outer loop
vertex -0.5647141361453965 4.915049848600954e-17 0.9096381254509476 
vertex -0.6193970810478497 0.6193970810478499 0.8759597525121763 
vertex -1.0200623824858865 8.557969148152249e-17 0.721293027889076 
endloop
endfacet
facet normal -0.3821700480395065 -0.016497933197924024 0.923944734592756 
outer loop
vertex -0.5647141361453965 4.915049848600954e-17 0.9096381254509476 
vertex -1.0200623824858865 8.557969148152249e-17 0.721293027889076 
vertex -0.61939708104785 -0.6193970810478497 0.8759597525121763 
endloop
endfacet
facet normal 0.016497933197924024 -0.3821700480395066 0.9239447345927557 
outer loop
vertex -2.7755575615628914e-17 -0.5647141361453965 0.9096381254509476 
vertex -6.187180397650612e-17 -1.0200623824858863 0.721293027889076 
vertex 0.6193970810478499 -0.6193970810478499 0.8759597525121763 
endloop
endfacet
facet normal 0.01311483616672298 -0.4124482966843635 0.9108866030601654 
outer loop
vertex -2.7755575615628914e-17 -0.5647141361453965 0.9096381254509476 
vertex 0.6193970810478499 -0.6193970810478499 0.8759597525121763 
vertex 9.162826184145866e-17 0.0 1.165339968890362 
endloop
endfacet
facet normal -0.013114836166723052 -0.4124482966843635 0.9108866030601654 
outer loop
vertex -2.7755575615628914e-17 -0.5647141361453965 0.9096381254509476 
vertex 9.162826184145866e-17 0.0 1.165339968890362 
vertex -0.61939708104785 -0.6193970810478497 0.8759597525121763 
endloop
endfacet
facet normal -0.016497933197924128 -0.3821700480395066 0.9239447345927557 
outer loop
vertex -2.7755575615628914e-17 -0.5647141361453965 0.9096381254509476 
vertex -0.61939708104785 -0.6193970810478497 0.8759597525121763 
vertex -6.187180397650612e-17 -1.0200623824858863 0.721293027889076 
endloop
endfacet
facet normal -0.8568756603413654 -0.4313125274902787 -0.2823713978867135 
outer loop
vertex -0.9255683550048829 -0.3608542188594862 -0.39931319510031305 
vertex -0.8240197943900954 -0.8240197943900952 0.0 
vertex -1.2387941620956995 1.3877787807814457e-16 -1.3877787807814457e-17 
endloop
endfacet
facet normal -0.8526615778908582 -0.45399359665342687 -0.25856923209530874 
outer loop
vertex -0.9255683550048829 -0.3608542188594862 -0.39931319510031305 
vertex -1.2387941620956995 1.3877787807814457e-16 -1.3877787807814457e-17 
vertex -1.0200623824858865 9.194034422677078e-17 -0.721293027889076 
endloop
endfacet
facet normal -0.8361636446929338 -0.4704915298513511 -0.28190083297493856 
outer loop
vertex -0.9255683550048829 -0.3608542188594862 -0.39931319510031305 
vertex -1.0200623824858865 9.194034422677078e-17 -0.721293027889076 
vertex -0.61939708104785 -0.6193970810478499 -0.8759597525121763 
endloop
endfacet
facet normal -0.8437608241746422 -0.4444273636570019 -0.3009185770619947 
outer loop
vertex -0.9255683550048829 -0.3608542188594862 -0.39931319510031305 
vertex -0.61939708104785 -0.6193970810478499 -0.8759597525121763 
vertex -0.8240197943900954 -0.8240197943900952 0.0 
endloop
endfacet
facet normal -0.470491529851351 -0.8361636446929339 -0.28190083297493873 
outer loop
vertex -0.36085421885948643 -0.9255683550048828 -0.39931319510031305 
vertex -0.61939708104785 -0.6193970810478499 -0.8759597525121763 
vertex -1.0466164971726737e-16 -1.0200623824858863 -0.721293027889076 
endloop
endfacet
facet normal -0.45399359665342687 -0.8526615778908582 -0.2585692320953091 
outer loop
vertex -0.36085421885948643 -0.9255683550048828 -0.39931319510031305 
vertex -1.0466164971726737e-16 -1.0200623824858863 -0.721293027889076 
vertex -9.71445146547012e-17 -1.2387941620956995 0.0 
endloop
endfacet
facet normal -0.4313125274902788 -0.8568756603413652 -0.2823713978867136 
outer loop
vertex -0.36085421885948643 -0.9255683550048828 -0.39931319510031305 
vertex -9.71445146547012e-17 -1.2387941620956995 0.0 
vertex -0.8240197943900954 -0.8240197943900952 0.0 
endloop
endfacet
facet normal -0.44442736365700203 -0.843760824174642 -0.30091857706199465 
outer loop
vertex -0.36085421885948643 -0.9255683550048828 -0.39931319510031305 
vertex -0.8240197943900954 -0.8240197943900952 0.0 
vertex -0.61939708104785 -0.6193970810478499 -0.8759597525121763 
endloop
endfacet
facet normal -0.45399359665342703 -0.852661577890858 0.2585692320953091 
outer loop
vertex -0.3608542188594864 -0.9255683550048827 0.39931319510031305 
vertex -9.71445146547012e-17 -1.2387941620956995 0.0 
vertex -6.187180397650612e-17 -1.0200623824858863 0.721293027889076 
endloop
endfacet
facet normal -0.4704915298513512 -0.8361636446929338 0.2819008329749386 
outer loop
vertex -0.3608542188594864 -0.9255683550048827 0.39931319510031305 
vertex -6.187180397650612e-17 -1.0200623824858863 0.721293027889076 
vertex -0.61939708104785 -0.6193970810478497 0.8759597525121763 
endloop
endfacet
facet normal -0.4444273636570019 -0.8437608241746422 0.3009185770619947 
outer loop
vertex -0.3608542188594864 -0.9255683550048827 0.39931319510031305 
vertex -0.61939708104785 -0.6193970810478497 0.8759597525121763 
vertex -0.8240197943900954 -0.8240197943900952 0.0 
endloop
endfacet
facet normal -0.4313125274902788 -0.8568756603413652 0.28237139788671384 
outer loop
vertex -0.3608542188594864 -0.9255683550048827 0.39931319510031305 
vertex -0.8240197943900954 -0.8240197943900952 0.0 
vertex -9.71445146547012e-17 -1.2387941620956995 0.0 
endloop
endfacet
facet normal -0.8437608241746422 -0.44442736365700186 0.3009185770619947 
outer loop
vertex -0.9255683550048829 -0.36085421885948615 0.39931319510031305 
vertex -0.8240197943900954 -0.8240197943900952 0.0 
vertex -0.61939708104785 -0.6193970810478497 0.8759597525121763 
endloop
endfacet
facet normal -0.8361636446929338 -0.4704915298513511 0.28190083297493856 
outer loop
vertex -0.9255683550048829 -0.36085421885948615 0.39931319510031305 
vertex -0.61939708104785 -0.6193970810478497 0.8759597525121763 
vertex -1.0200623824858865 8.557969148152249e-17 0.721293027889076 
endloop
endfacet
facet normal -0.8526615778908582 -0.4539935966534269 0.2585692320953088 
outer loop
vertex -0.9255683550048829 -0.36085421885948615 0.39931319510031305 
vertex -1.0200623824858865 8.557969148152249e-17 0.721293027889076 
vertex -1.2387941620956995 1.3877787807814457e-16 -1.3877787807814457e-17 
endloop
endfacet
facet normal -0.8568756603413654 -0.4313125274902787 0.2823713978867136 
outer loop
vertex -0.9255683550048829 -0.36085421885948615 0.39931319510031305 
vertex -1.2387941620956995 1.3877787807814457e-16 -1.3877787807814457e-17 
vertex -0.8240197943900954 -0.8240197943900952 0.0 
endloop
endfacet
facet normal -0.4704915298513511 0.8361636446929338 -0.2819008329749385 
outer loop
vertex -0.36085421885948615 0.9255683550048827 -0.39931319510031305 
vertex 1.7867651802561113e-16 1.0200623824858863 -0.721293027889076 
vertex -0.6193970810478499 0.6193970810478497 -0.8759597525121763 
endloop
endfacet
facet normal -0.444427363657002 0.843760824174642 -0.30091857706199454 
outer loop
vertex -0.36085421885948615 0.9255683550048827 -0.39931319510031305 
vertex -0.6193970810478499 0.6193970810478497 -0.8759597525121763 
vertex -0.8240197943900952 0.8240197943900951 -1.3877787807814457e-17 
endloop
endfacet
facet normal -0.4313125274902788 0.8568756603413652 -0.2823713978867136 
outer loop
vertex -0.36085421885948615 0.9255683550048827 -0.39931319510031305 
vertex -0.8240197943900952 0.8240197943900951 -1.3877787807814457e-17 
vertex 1.8041124150158794e-16 1.2387941620956995 1.3877787807814457e-17 
endloop
endfacet
facet normal -0.4539935966534269 0.8526615778908581 -0.258569232095309 
outer loop
vertex -0.36085421885948615 0.9255683550048827 -0.39931319510031305 
vertex 1.8041124150158794e-16 1.2387941620956995 1.3877787807814457e-17 
vertex 1.7867651802561113e-16 1.0200623824858863 -0.721293027889076 
endloop
endfacet
facet normal -0.8568756603413653 0.43131252749027904 -0.28237139788671367 
outer loop
vertex -0.9255683550048828 0.3608542188594862 -0.39931319510031305 
vertex -1.2387941620956995 1.3877787807814457e-16 -1.3877787807814457e-17 
vertex -0.8240197943900952 0.8240197943900951 -1.3877787807814457e-17 
endloop
endfacet
facet normal -0.843760824174642 0.44442736365700214 -0.30091857706199465 
outer loop
vertex -0.9255683550048828 0.3608542188594862 -0.39931319510031305 
vertex -0.8240197943900952 0.8240197943900951 -1.3877787807814457e-17 
vertex -0.6193970810478499 0.6193970810478497 -0.8759597525121763 
endloop
endfacet
facet normal -0.8361636446929337 0.47049152985135145 -0.28190083297493845 
outer loop
vertex -0.9255683550048828 0.3608542188594862 -0.39931319510031305 
vertex -0.6193970810478499 0.6193970810478497 -0.8759597525121763 
vertex -1.0200623824858865 9.194034422677078e-17 -0.721293027889076 
endloop
endfacet
facet normal -0.852661577890858 0.45399359665342726 -0.2585692320953087 
outer loop
vertex -0.9255683550048828 0.3608542188594862 -0.39931319510031305 
vertex -1.0200623824858865 9.194034422677078e-17 -0.721293027889076 
vertex -1.2387941620956995 1.3877787807814457e-16 -1.3877787807814457e-17 
endloop
endfacet
facet normal -0.8361636446929337 0.47049152985135145 0.2819008329749387 
outer loop
vertex -0.9255683550048828 0.3608542188594863 0.39931319510031305 
vertex -1.0200623824858865 8.557969148152249e-17 0.721293027889076 
vertex -0.6193970810478497 0.6193970810478499 0.8759597525121763 
endloop
endfacet
facet normal -0.8437608241746419 0.4444273636570022 0.30091857706199465 
outer loop
vertex -0.9255683550048828 0.3608542188594863 0.39931319510031305 
vertex -0.6193970810478497 0.6193970810478499 0.8759597525121763 
vertex -0.8240197943900952 0.8240197943900951 -1.3877787807814457e-17 
endloop
endfacet
facet normal -0.8568756603413653 0.43131252749027904 0.28237139788671345 
outer loop
vertex -0.9255683550048828 0.3608542188594863 0.39931319510031305 
vertex -0.8240197943900952 0.8240197943900951 -1.3877787807814457e-17 
vertex -1.2387941620956995 1.3877787807814457e-16 -1.3877787807814457e-17 
endloop
endfacet
facet normal -0.852661577890858 0.4539935966534273 0.2585692320953088 
outer loop
vertex -0.9255683550048828 0.3608542188594863 0.39931319510031305 
vertex -1.2387941620956995 1.3877787807814457e-16 -1.3877787807814457e-17 
vertex -1.0200623824858865 8.557969148152249e-17 0.721293027889076 
endloop
endfacet
facet normal -0.4313125274902789 0.8568756603413653 0.28237139788671345 
outer loop
vertex -0.36085421885948615 0.9255683550048828 0.39931319510031305 
vertex 1.8041124150158794e-16 1.2387941620956995 1.3877787807814457e-17 
vertex -0.8240197943900952 0.8240197943900951 -1.3877787807814457e-17 
endloop
endfacet
facet normal -0.44442736365700214 0.8437608241746422 0.3009185770619946 
outer loop
vertex -0.36085421885948615 0.9255683550048828 0.39931319510031305 
vertex -0.8240197943900952 0.8240197943900951 -1.3877787807814457e-17 
vertex -0.6193970810478497 0.6193970810478499 0.8759597525121763 
endloop
endfacet
facet normal -0.470491529851351 0.8361636446929339 0.2819008329749387 
outer loop
vertex -0.36085421885948615 0.9255683550048828 0.39931319510031305 
vertex -0.6193970810478497 0.6193970810478499 0.8759597525121763 
vertex 1.6017280094852518e-16 1.0200623824858863 0.721293027889076 
endloop
endfacet
facet normal -0.45399359665342687 0.8526615778908582 0.2585692320953091 
outer loop
vertex -0.36085421885948615 0.9255683550048828 0.39931319510031305 
vertex 1.6017280094852518e-16 1.0200623824858863 0.721293027889076 
vertex 1.8041124150158794e-16 1.2387941620956995 1.3877787807814457e-17 
endloop
endfacet
facet normal 0.843760824174642 0.44442736365700225 -0.3009185770619947 
outer loop
vertex 0.925568355004883 0.36085421885948626 -0.39931319510031305 
vertex 0.61939708104785 0.6193970810478497 -0.8759597525121763 
vertex 0.8240197943900953 0.8240197943900953 0.0 
endloop
endfacet
facet normal 0.8568756603413652 0.4313125274902789 -0.2823713978867134 
outer loop
vertex 0.925568355004883 0.36085421885948626 -0.39931319510031305 
vertex 0.8240197943900953 0.8240197943900953 0.0 
vertex 1.2387941620956997 -2.7755575615628914e-17 1.3877787807814457e-17 
endloop
endfacet
facet normal 0.8526615778908581 0.45399359665342676 -0.258569232095309 
outer loop
vertex 0.925568355004883 0.36085421885948626 -0.39931319510031305 
vertex 1.2387941620956997 -2.7755575615628914e-17 1.3877787807814457e-17 
vertex 1.0200623824858865 -4.915049848600953e-17 -0.721293027889076 
endloop
endfacet
facet normal 0.8361636446929337 0.4704915298513512 -0.2819008329749389 
outer loop
vertex 0.925568355004883 0.36085421885948626 -0.39931319510031305 
vertex 1.0200623824858865 -4.915049848600953e-17 -0.721293027889076 
vertex 0.61939708104785 0.6193970810478497 -0.8759597525121763 
endloop
endfacet
facet normal 0.4704915298513513 0.8361636446929339 -0.2819008329749386 
outer loop
vertex 0.36085421885948643 0.9255683550048827 -0.39931319510031305 
vertex 0.61939708104785 0.6193970810478497 -0.8759597525121763 
vertex 1.7867651802561113e-16 1.0200623824858863 -0.721293027889076 
endloop
endfacet
facet normal 0.4539935966534271 0.852661577890858 -0.258569232095309 
outer loop
vertex 0.36085421885948643 0.9255683550048827 -0.39931319510031305 
vertex 1.7867651802561113e-16 1.0200623824858863 -0.721293027889076 
vertex 1.8041124150158794e-16 1.2387941620956995 1.3877787807814457e-17 
endloop
endfacet
facet normal 0.43131252749027876 0.8568756603413652 -0.28237139788671384 
outer loop
vertex 0.36085421885948643 0.9255683550048827 -0.39931319510031305 
vertex 1.8041124150158794e-16 1.2387941620956995 1.3877787807814457e-17 
vertex 0.8240197943900953 0.8240197943900953 0.0 
endloop
endfacet
facet normal 0.44442736365700186 0.843760824174642 -0.3009185770619948 
outer loop
vertex 0.36085421885948643 0.9255683550048827 -0.39931319510031305 
vertex 0.8240197943900953 0.8240197943900953 0.0 
vertex 0.61939708104785 0.6193970810478497 -0.8759597525121763 
endloop
endfacet
facet normal 0.45399359665342703 0.852661577890858 0.258569232095309 
outer loop
vertex 0.36085421885948643 0.9255683550048827 0.39931319510031305 
vertex 1.8041124150158794e-16 1.2387941620956995 1.3877787807814457e-17 
vertex 1.6017280094852518e-16 1.0200623824858863 0.721293027889076 
endloop
endfacet
facet normal 0.4704915298513512 0.8361636446929338 0.2819008329749386 
outer loop
vertex 0.36085421885948643 0.9255683550048827 0.39931319510031305 
vertex 1.6017280094852518e-16 1.0200623824858863 0.721293027889076 
vertex 0.61939708104785 0.6193970810478497 0.8759597525121763 
endloop
endfacet
facet normal 0.44442736365700186 0.8437608241746422 0.30091857706199476 
outer loop
vertex 0.36085421885948643 0.9255683550048827 0.39931319510031305 
vertex 0.61939708104785 0.6193970810478497 0.8759597525121763 
vertex 0.8240197943900953 0.8240197943900953 0.0 
endloop
endfacet
facet normal 0.43131252749027876 0.8568756603413652 0.28237139788671384 
outer loop
vertex 0.36085421885948643 0.9255683550048827 0.39931319510031305 
vertex 0.8240197943900953 0.8240197943900953 0.0 
vertex 1.8041124150158794e-16 1.2387941620956995 1.3877787807814457e-17 
endloop
endfacet
facet normal 0.843760824174642 0.44442736365700225 0.30091857706199476 
outer loop
vertex 0.925568355004883 0.36085421885948626 0.39931319510031305 
vertex 0.8240197943900953 0.8240197943900953 0.0 
vertex 0.61939708104785 0.6193970810478497 0.8759597525121763 
endloop
endfacet
facet normal 0.8361636446929337 0.4704915298513511 0.2819008329749389 
outer loop
vertex 0.925568355004883 0.36085421885948626 0.39931319510031305 
vertex 0.61939708104785 0.6193970810478497 0.8759597525121763 
vertex 1.0200623824858865 -5.782411586589357e-18 0.721293027889076 
endloop
endfacet
facet normal 0.8526615778908582 0.4539935966534269 0.2585692320953091 
outer loop
vertex 0.925568355004883 0.36085421885948626 0.39931319510031305 
vertex 1.0200623824858865 -5.782411586589357e-18 0.721293027889076 
vertex 1.2387941620956997 -2.7755575615628914e-17 1.3877787807814457e-17 
endloop
endfacet
facet normal 0.8568756603413652 0.4313125274902789 0.28237139788671345 
outer loop
vertex 0.925568355004883 0.36085421885948626 0.39931319510031305 
vertex 1.2387941620956997 -2.7755575615628914e-17 1.3877787807814457e-17 
vertex 0.8240197943900953 0.8240197943900953 0.0 
endloop
endfacet
facet normal 0.44442736365700186 -0.8437608241746422 -0.30091857706199476 
outer loop
vertex 0.36085421885948626 -0.9255683550048827 -0.39931319510031305 
vertex 0.6193970810478499 -0.6193970810478497 -0.8759597525121763 
vertex 0.8240197943900952 -0.8240197943900953 0.0 
endloop
endfacet
facet normal 0.43131252749027865 -0.8568756603413652 -0.2823713978867138 
outer loop
vertex 0.36085421885948626 -0.9255683550048827 -0.39931319510031305 
vertex 0.8240197943900952 -0.8240197943900953 0.0 
vertex -9.71445146547012e-17 -1.2387941620956995 0.0 
endloop
endfacet
facet normal 0.4539935966534269 -0.8526615778908581 -0.2585692320953091 
outer loop
vertex 0.36085421885948626 -0.9255683550048827 -0.39931319510031305 
vertex -9.71445146547012e-17 -1.2387941620956995 0.0 
vertex -1.0466164971726737e-16 -1.0200623824858863 -0.721293027889076 
endloop
endfacet
facet normal 0.4704915298513511 -0.8361636446929338 -0.2819008329749386 
outer loop
vertex 0.36085421885948626 -0.9255683550048827 -0.39931319510031305 
vertex -1.0466164971726737e-16 -1.0200623824858863 -0.721293027889076 
vertex 0.6193970810478499 -0.6193970810478497 -0.8759597525121763 
endloop
endfacet
facet normal 0.8568756603413651 -0.431312527490279 -0.2823713978867139 
outer loop
vertex 0.9255683550048828 -0.36085421885948626 -0.39931319510031305 
vertex 1.2387941620956997 -2.7755575615628914e-17 1.3877787807814457e-17 
vertex 0.8240197943900952 -0.8240197943900953 0.0 
endloop
endfacet
facet normal 0.843760824174642 -0.44442736365700203 -0.3009185770619947 
outer loop
vertex 0.9255683550048828 -0.36085421885948626 -0.39931319510031305 
vertex 0.8240197943900952 -0.8240197943900953 0.0 
vertex 0.6193970810478499 -0.6193970810478497 -0.8759597525121763 
endloop
endfacet
facet normal 0.8361636446929337 -0.4704915298513514 -0.28190083297493856 
outer loop
vertex 0.9255683550048828 -0.36085421885948626 -0.39931319510031305 
vertex 0.6193970810478499 -0.6193970810478497 -0.8759597525121763 
vertex 1.0200623824858865 -4.915049848600953e-17 -0.721293027889076 
endloop
endfacet
facet normal 0.8526615778908578 -0.45399359665342737 -0.25856923209530897 
outer loop
vertex 0.9255683550048828 -0.36085421885948626 -0.39931319510031305 
vertex 1.0200623824858865 -4.915049848600953e-17 -0.721293027889076 
vertex 1.2387941620956997 -2.7755575615628914e-17 1.3877787807814457e-17 
endloop
endfacet
facet normal 0.8361636446929338 -0.4704915298513513 0.2819008329749386 
outer loop
vertex 0.9255683550048828 -0.3608542188594863 0.39931319510031305 
vertex 1.0200623824858865 -5.782411586589357e-18 0.721293027889076 
vertex 0.6193970810478499 -0.6193970810478499 0.8759597525121763 
endloop
endfacet
facet normal 0.843760824174642 -0.4444273636570021 0.30091857706199465 
outer loop
vertex 0.9255683550048828 -0.3608542188594863 0.39931319510031305 
vertex 0.6193970810478499 -0.6193970810478499 0.8759597525121763 
vertex 0.8240197943900952 -0.8240197943900953 0.0 
endloop
endfacet
facet normal 0.8568756603413652 -0.43131252749027904 0.28237139788671384 
outer loop
vertex 0.9255683550048828 -0.3608542188594863 0.39931319510031305 
vertex 0.8240197943900952 -0.8240197943900953 0.0 
vertex 1.2387941620956997 -2.7755575615628914e-17 1.3877787807814457e-17 
endloop
endfacet
facet normal 0.8526615778908578 -0.4539935966534272 0.25856923209530897 
outer loop
vertex 0.9255683550048828 -0.3608542188594863 0.39931319510031305 
vertex 1.2387941620956997 -2.7755575615628914e-17 1.3877787807814457e-17 
vertex 1.0200623824858865 -5.782411586589357e-18 0.721293027889076 
endloop
endfacet
facet normal 0.43131252749027865 -0.8568756603413652 0.28237139788671367 
outer loop
vertex 0.3608542188594862 -0.9255683550048828 0.39931319510031305 
vertex -9.71445146547012e-17 -1.2387941620956995 0.0 
vertex 0.8240197943900952 -0.8240197943900953 0.0 
endloop
endfacet
facet normal 0.44442736365700186 -0.8437608241746422 0.30091857706199465 
outer loop
vertex 0.3608542188594862 -0.9255683550048828 0.39931319510031305 
vertex 0.8240197943900952 -0.8240197943900953 0.0 
vertex 0.6193970810478499 -0.6193970810478499 0.8759597525121763 
endloop
endfacet
facet normal 0.4704915298513509 -0.8361636446929339 0.28190083297493873 
outer loop
vertex 0.3608542188594862 -0.9255683550048828 0.39931319510031305 
vertex 0.6193970810478499 -0.6193970810478499 0.8759597525121763 
vertex -6.187180397650612e-17 -1.0200623824858863 0.721293027889076 
endloop
endfacet
facet normal 0.4539935966534269 -0.8526615778908582 0.2585692320953091 
outer loop
vertex 0.3608542188594862 -0.9255683550048828 0.39931319510031305 
vertex -6.187180397650612e-17 -1.0200623824858863 0.721293027889076 
vertex -9.71445146547012e-17 -1.2387941620956995 0.0 
endloop
endfacet
endsolid smooth-test
